<?xml version="1.0" encoding="UTF-8"?>
<svg id="circle" xmlns="http://www.w3.org/2000/svg" viewBox="0 0 217.16 217.16">
  <defs>
    <style>
      .cls-1 {
        fill: #ff523b;
      }

      .cls-2 {
        fill: #e7e7e7;
      }

      .cls-3 {
        fill: #ed4484;
      }

      .cls-4 {
        fill: #e7e7e7;
      }
    </style>
  </defs>
  <circle class="cls-1" cx="108.58" cy="108.58" r="108.58"/>
  <g>
    <path class="cls-2" d="M42.63,97.36c-.63,0-.92-.26-.92-.88l-.07-11.3c0-.63-.22-.88-.85-.88h-2.87c-.63,0-.92-.26-.92-.88l-.11-5.6c0-.63.22-.88.85-.88l16.83-.07c.63,0,.92.26.92.88l.11,5.6c0,.63-.22.88-.85.92l-3.09.07c-.63.04-.92.29-.92.92l-.04,11.08c0,.77-.22,1.07-.96,1.07l-7.11-.04Z"/>
    <path class="cls-2" d="M55.37,92.95c0-5.23,6.04-5.45,8.36-5.52,1.51-.04,2.1-.11,2.1-.88,0-.59-.33-.92-.85-.92-.33,0-.55.15-.74.29-.48.37-.7.52-1.8.55l-5.52.11c-.63,0-.74-.22-.74-.77,0-3.31,3.94-6.11,9.61-6.11s8.62,2.91,8.62,7.92l.04,8.69c0,.63-.48,1.07-1.29,1.07h-6.3c-.7,0-.85-.33-.96-.74-.07-.26-.18-.37-.37-.37-.44,0-.81.7-2.14,1.14-.59.18-1.36.33-2.36.33-3.72,0-5.67-1.84-5.67-4.79ZM65.75,91.88c0-.37-.11-1.03-.81-1.03-.48,0-1.33.29-1.33,1.1,0,.48.29.85,1.14.85.37,0,.99-.07.99-.92Z"/>
    <path class="cls-2" d="M76.36,100.05l-.07-19c0-.63.26-.92.88-.92l6.66-.15c.96-.04,1.03.26,1.07.88,0,.33.07.41.18.41.33,0,.66-.63,1.66-1.07.55-.26,1.36-.48,2.43-.48,3.72,0,7.47,2.39,7.47,8.98s-3.68,9.06-7.25,9.06c-1.88,0-2.87-.48-3.76-1.18-.18-.15-.29-.18-.41-.18-.18,0-.22.18-.22.44l-.04,3.06c0,.63-.29,1.03-1.33,1.03h-6.44c-.63,0-.85-.26-.85-.88ZM87.62,88.71c.04-1.69-.74-2.21-1.47-2.21-.59,0-1.1.37-1.1,1.18l-.04,2.21c0,.74.59,1.03,1.14,1.03.7,0,1.47-.52,1.47-2.21Z"/>
    <path class="cls-2" d="M115.64,96.55l-.07-8.06c0-.96-.37-1.22-.92-1.22-.52,0-.99.22-.99,1.03l-.04,8.03c0,.81-.44,1.03-1.29,1.03h-6.44c-.63,0-.92-.26-.92-.88l-.04-19.4c0-.63.26-.92.88-.92l6.89-.07c.63,0,.88.22.88.85l.07,3.83c0,.29.11.41.33.41.11,0,.22-.07.33-.15.77-.55,1.69-1.33,4.12-1.33,3.31,0,5.93,1.62,5.89,7.29l-.04,9.43c0,.63-.26.92-.88.92l-6.85.07c-.63,0-.92-.22-.92-.85Z"/>
    <path class="cls-2" d="M125.66,88.75c0-5.6,3.9-9.06,9.87-9.06s9.79,3.53,9.79,9.06c0,.66-.37.88-.99.88l-7.77.18c-.3,0-.77-.04-.96-.07-.26-.04-.44-.11-.63-.11-.33,0-.59.22-.59.81,0,.96.66,1.4,1.36,1.4.37,0,.63-.11.92-.26.44-.22.7-.29,1.33-.33l5.23-.15c1.18-.04,1.77.22,1.77,1.03,0,1.14-1.18,2.87-2.84,3.98-1.51.99-3.64,1.62-6.33,1.62-6.33,0-10.16-3.46-10.16-8.98ZM136.22,86.8c.41,0,.63-.22.63-.59,0-.55-.52-1.1-1.21-1.1-.63,0-1.22.48-1.22,1.1,0,.44.26.59.66.59h1.14Z"/>
    <path class="cls-2" d="M146.83,96.44l-.04-15.39c0-.63.26-.88.88-.88l6.85-.11c.81,0,.88.4.96.85.04.26.11.33.22.33s.22-.07.44-.29c.7-.66,1.51-1.14,2.76-1.14.33,0,.66.04.96.11.55.15.85.48.85,1.03l.07,6.26c0,.52-.15.7-.59.7-.37,0-.74-.11-1.51-.11-.92,0-3.17.15-3.17,2.25l-.04,6.26c0,.63-.41,1.07-1.29,1.07h-6.44c-.63,0-.92-.29-.92-.92Z"/>
    <path class="cls-2" d="M161.44,88.75c0-5.6,3.9-9.06,9.87-9.06s9.79,3.53,9.79,9.06c0,.66-.37.88-.99.88l-7.77.18c-.3,0-.77-.04-.96-.07-.26-.04-.44-.11-.63-.11-.33,0-.59.22-.59.81,0,.96.66,1.4,1.36,1.4.37,0,.63-.11.92-.26.44-.22.7-.29,1.33-.33l5.23-.15c1.18-.04,1.77.22,1.77,1.03,0,1.14-1.18,2.87-2.84,3.98-1.51.99-3.64,1.62-6.33,1.62-6.33,0-10.16-3.46-10.16-8.98ZM172.01,86.8c.41,0,.63-.22.63-.59,0-.55-.52-1.1-1.21-1.1-.63,0-1.22.48-1.22,1.1,0,.44.26.59.66.59h1.14Z"/>
    <path class="cls-2" d="M30.81,119.05l.04-8.43c0-.7.22-.96.88-1.14,1.22-.37,1.55-.99,1.51-2.58,0-.99.26-1.22,1.07-1.25l4.2-.11c.77,0,.99.26,1.03.88l.11,2.25c.04.63.29.85.92.85h1.99c.81,0,1.07.26,1.07.88l.11,4.34c0,.63-.22.85-.85.88l-2.39.11c-.63.04-.88.3-.88.92l-.04,1.84c-.04,1.47.81,2.03,2.21,2.03,1.33,0,1.77.04,1.8,1.18l.07,3.76c0,.59-.22.92-.77,1.14-1.18.44-2.47.59-3.87.59-5.78,0-8.25-2.47-8.21-8.14Z"/>
    <path class="cls-2" d="M44.69,118.17c0-5.56,3.68-9.02,10.35-9.02s10.35,3.46,10.35,9.02-3.68,9.02-10.35,9.02-10.35-3.46-10.35-9.02ZM56.36,118.17c0-1.84-.55-2.43-1.33-2.43s-1.33.59-1.33,2.43.55,2.43,1.33,2.43,1.33-.59,1.33-2.43Z"/>
    <path class="cls-2" d="M74.59,126.82c-.63,0-.85-.26-.85-.88l-.07-19.37c0-.63.26-.92.88-.92l6.89-.07c.63,0,.85.22.85.85l.07,19.37c0,.77-.48,1.07-1.33,1.07l-6.44-.04Z"/>
    <path class="cls-2" d="M83.65,122.4c0-5.23,6.04-5.45,8.36-5.52,1.51-.04,2.1-.11,2.1-.88,0-.59-.33-.92-.85-.92-.33,0-.55.15-.74.3-.48.37-.7.52-1.8.55l-5.52.11c-.63,0-.74-.22-.74-.77,0-3.31,3.94-6.11,9.61-6.11s8.62,2.91,8.62,7.92l.04,8.69c0,.63-.48,1.07-1.29,1.07h-6.3c-.7,0-.85-.33-.96-.74-.07-.26-.18-.37-.37-.37-.44,0-.81.7-2.14,1.14-.59.19-1.36.33-2.36.33-3.72,0-5.67-1.84-5.67-4.79ZM94.03,121.33c0-.37-.11-1.03-.81-1.03-.48,0-1.33.29-1.33,1.1,0,.48.29.85,1.14.85.37,0,.99-.07.99-.92Z"/>
    <path class="cls-2" d="M104.38,119.9l.04-9.39c0-.63.26-.92.88-.92l6.85-.07c.63,0,.92.22.92.85l.07,8.06c0,.96.37,1.22.92,1.22.52,0,.99-.22.99-1.03l.04-7.92c0-.81.44-1.03,1.29-1.03h6.44c.63,0,.92.26.92.88l.04,15.28c0,.63-.26.92-.88.92l-6.81.11c-.66,0-.92-.26-.99-.77-.04-.29-.11-.41-.33-.41-.11,0-.18.04-.33.15-.81.63-1.73,1.36-4.16,1.36-3.31,0-5.93-1.58-5.89-7.29Z"/>
    <path class="cls-2" d="M136.48,126.01l-.07-8.06c0-.96-.37-1.22-.92-1.22-.52,0-.99.22-.99,1.03l-.04,8.03c0,.81-.44,1.03-1.29,1.03h-6.44c-.63,0-.92-.26-.92-.88l-.04-15.39c0-.63.26-.92.88-.92l6.81-.11c.66,0,.92.22.99.74.04.3.11.41.33.41.11,0,.18-.04.33-.15.81-.63,1.73-1.36,4.16-1.36,3.31,0,5.93,1.58,5.89,7.29l-.04,9.43c0,.63-.26.92-.88.92l-6.85.07c-.63,0-.92-.22-.92-.85Z"/>
    <path class="cls-2" d="M146.5,118.13c0-5.67,3.79-8.98,10.35-8.98,2.95,0,5.04.66,6.66,1.91,1.91,1.47,2.91,3.75,2.91,5.3,0,.74-.22.88-.74.92l-6.66.11c-.81,0-.99-.26-1.29-.81-.26-.52-.44-.85-.96-.85-.77,0-1.25.81-1.25,2.47,0,1.55.41,2.39,1.18,2.39.33,0,.63-.15.85-.63.37-.74.48-.81,1.29-.81l6.63-.11c.7,0,.77.26.77.85,0,2.36-1.22,4.49-3.31,5.78-1.69,1.03-3.9,1.51-6.3,1.51-6.37,0-10.13-3.46-10.13-9.06Z"/>
    <path class="cls-2" d="M178.64,126.01l-.07-8.06c0-.96-.37-1.22-.92-1.22-.52,0-.99.22-.99,1.03l-.04,8.03c0,.81-.44,1.03-1.29,1.03h-6.44c-.63,0-.92-.26-.92-.88l-.04-19.4c0-.63.26-.92.88-.92l6.89-.07c.63,0,.88.22.88.85l.07,3.83c0,.29.11.41.33.41.11,0,.22-.07.33-.15.77-.55,1.69-1.33,4.12-1.33,3.31,0,5.93,1.62,5.89,7.29l-.04,9.43c0,.63-.26.92-.88.92l-6.85.07c-.63,0-.92-.22-.92-.85Z"/>
    <path class="cls-2" d="M68.86,156.28c-.63,0-.92-.26-.92-.88l-.04-15.39c0-.63.26-.92.88-.92l6.85-.07c.63,0,.92.22.92.85l.04,15.39c0,.63-.29,1.07-1.29,1.07l-6.44-.04ZM69.38,136.02c0-.52.15-.85.81-.88l3.9-.15c.66-.04,1.03.41,1.03,1.33,0,.55-.33.88-1.22.88l-3.5.04c-.63,0-1.03-.3-1.03-1.22Z"/>
    <path class="cls-2" d="M89.3,155.46l-.07-8.06c0-.96-.37-1.22-.92-1.22-.52,0-.99.22-.99,1.03l-.04,8.03c0,.81-.44,1.03-1.29,1.03h-6.44c-.63,0-.92-.26-.92-.88l-.04-15.39c0-.63.26-.92.88-.92l6.81-.11c.66,0,.92.22.99.74.04.3.11.41.33.41.11,0,.18-.04.33-.15.81-.63,1.73-1.36,4.16-1.36,3.31,0,5.93,1.58,5.89,7.29l-.04,9.43c0,.63-.26.92-.88.92l-6.85.07c-.63,0-.92-.22-.92-.85Z"/>
    <path class="cls-2" d="M120.08,155.35c-.22-.63-.44-.92-1.62-.92h-3.09c-.63,0-.85.15-.99.74-.18.74-.77,1.03-1.47,1.03l-6.74-.11c-.4,0-.66-.15-.66-.44,0-.15.07-.41.18-.7l6.33-18.3c.18-.59.52-.85,1.14-.85l8.69-.04c.63,0,.96.22,1.18.85l6.15,18.56c.11.33.18.59.18.7,0,.33-.26.48-.66.48l-7.36.04c-.63,0-.96-.22-1.25-1.03ZM117.65,147.84c.48,0,.66-.18.66-.52,0-.11-.04-.37-.11-.59l-.63-2.32c-.04-.15-.11-.29-.33-.29-.15,0-.3.07-.33.29l-.55,2.28c-.07.33-.11.52-.11.66,0,.3.26.48.74.48h.66Z"/>
    <path class="cls-2" d="M141.4,155.5l-1.1-2.84c-.18-.44-.3-.59-.59-.59-.26,0-.41.11-.41.63l.04,2.5c0,.74-.29,1.03-1.29,1.03h-6.66c-.63,0-.88-.26-.88-.88l-.07-18.63c0-.63.26-.92.88-.92l9.68-.07c7.03-.04,9.91,3.17,9.91,8.14,0,2.43-.7,4.01-1.95,5.3-.3.29-.41.55-.41.81,0,.18.04.37.22.74l1.99,4.35c.18.4.22.59.22.7,0,.29-.22.44-.63.44l-7.73.11c-.63,0-.99-.22-1.21-.81ZM141.88,143.9c0-.85-.55-1.55-1.47-1.55-.59,0-.88.29-.88,1.03v.88c0,.92.33,1.18.92,1.18,1.03,0,1.44-.81,1.44-1.55Z"/>
  </g>
  <polygon class="cls-3" points="58.45 65.76 58.14 65.14 57.19 65.14 57.51 65.76 58.45 65.76"/>
  <rect class="cls-3" x="20.16" y="127.9" width="1.26" height="1.26"/>
  <rect class="cls-3" x="18.28" y="94.64" width="1.26" height=".63"/>
  <path class="cls-4" d="M176.6,176.74l.63.31v-.63s-.63-.09-.63.31Z"/>
  <path class="cls-4" d="M167.18,105.51l-.63.63c.72.1.54-.48.63-.63Z"/>
  <g>
    <path class="cls-4" d="M52.32,30.19c2.79-1.85,5.64-3.04,7.85-5.65l.63.63c.82-1.44,3.4-1.62,4.08-2.82.17-.29-.12-.82,0-.94.13-.13,2.4-.07,1.88-1.88h.63v1.26c1.03.33,1.21-.5,1.57-.63,2.29-.8,4.78-1.28,6.9-1.88,5.36-1.52,10.46-3.4,15.69-4.39l.94.63v-1.26c1.47.83,3.58.84,5.34.63.64-.08,2.65-1.63,3.77,0,2.82-2.24,6.43-1.02,8.79-.63,3.06.51,8.74.09,11.61-.63v1.25c.91.09,1.96-.14,2.82,0,3.5.56,8.39,2.54,11.93,3.77,4.26,1.48,8.83,2.65,12.55,4.39,2.9,1.36,6.11,3.33,8.79,5.02.72.45,1.53,1.45,2.51,1.88l2.2-.63-.63,1.57c.6.69,1.44,1.11,2.2,1.57.28.17.78-.11.94,0l-.63-1.25,2.51-.63c-2.72-2.09-3.61-2.59-6.59-4.39-2.62-1.58-4.61-3.72-7.53-4.39l-.94.63v-1.25c-.09-.1-.54.1-.63,0v1.25h-1.88v-1.25h1.88c-3.22-3.89-2.59-1.59-5.96-2.51-.34-.09-2.8-2.42-3.14-2.51-.68-.19-1.77.16-2.51,0-.52-.11-2.61-1.77-3.14-1.88-2.55-.55-5.42-.61-8.16-1.25-3.48-.82-6.66-1.84-10.04-1.26-2.19.37-6.45-1.64-10.04-1.26-2.28.25-3.99,1.01-6.28.63-2.19-.36-7.91.73-10.04,1.26-3.07.76-6.45.61-9.42,1.26-.54.12-2.53,1.72-3.14,1.88-.54.15-1.39-.16-1.88,0-2.83.94-5.5,2.78-8.16,3.77-6.18,2.29-14.85,5.27-18.52,10.67h1.26v1.26ZM164.99,28.93c.41,0,.41.63,0,.63s-.41-.63,0-.63ZM154.63,23.28h1.26v.63h-1.26v-.63ZM140.51,16.38h.94v1.26h-1.88l.94-1.26ZM132.03,14.5h1.26v.63h-1.26v-.63ZM75.23,16.38c.41,0,.41.63,0,.63s-.41-.63,0-.63ZM58.91,23.28c.41,0,.41.63,0,.63s-.41-.63,0-.63ZM57.34,24.54h.63v1.26h-.63v-1.26ZM54.2,27.05h1.25v.63h-1.25v-.63Z"/>
    <path class="cls-4" d="M206.73,119.94c-1.07.76-1.45.59-1.88-.63l1.88-.31c.08-.61-.11-1.33,0-1.88,1.22-5.91,1.01-14.74,0-20.71-.4-2.4-1.29-5.18-1.88-7.53-1.18-4.63-2.49-9.33-3.77-13.81-1.04-3.64-2.08-6.89-3.77-10.67l-3.14-2.51c-.06-.43,2,.94,1.26-.63-.24-.51-.96-1.35-1.26-1.88-2.12-3.81-5.27-7.04-6.28-10.98-.11-.11-.6.14-.94,0-1.51-.63-2.54-2.16-3.45-3.45-4.6-6.48-10.07-10.57-16.32-15.38v1.26l-1.88.63c.16.11.92,1.47,1.57,1.88.17.11.95-.08,1.26.63l1.57-.63c-.3,2.01,1.76,4.07,3.77,3.77l-.63.94,4.71,4.71.94-1.26c-.58,2.66,1.62,3.63,3.14,5.34l2.51-.31-1.88.63,1.26,3.14h1.88l-.63.94,4.71,6.59.94-.63c-1.27,2.94,2.2,4.25,2.51,5.34.78,2.73,2.1,4.4,3.14,6.9.14.34-.11.81,0,.94l1.25-.31c-.62.4-.85,1.16-.63,1.88.39,1.28,1.36,2.94,1.88,4.39,1.41,3.88,2.35,8.44,3.14,12.55.37,1.95.26,4.59.63,6.28.05.21,1.21,1.67,1.26,1.88.45,2.06-.37,5.33,0,7.53.27,1.61-.58,3.46.63,5.02-1.31,18.99-5.09,36.18-15.69,52.1-.79,1.18-1.63,2.6-2.51,3.77l.63.94h-1.88l-.63,2.51h-1.25c.29,1.68-2.17,2.09-1.88,3.77h-1.26v1.25h-1.26c.14.99-.66,1.71-1.25,2.51l.63.31c0,.4-.6.28-.63.31-1.54,1.57-6.64,4.72-8.79,6.28v1.26l-2.51.63v1.25c-9.1,4.49-17.68,10-27.3,13.18-.39.13-1.07-.07-1.57,0v1.25l-2.2-.63c-2.45.99-6.52,2.86-8.79,3.14-1.96.24-4.26-.17-6.28,0l-.94,1.88h-.63v-1.26c-1.11.11-2.39-.16-3.45,0-.51.08-2.07,1.6-3.14,0-7.77.86-16.39.11-23.85-1.88-3.98-1.06-7.92-1.86-11.93-3.14-1.37-.44-2.3-1.2-2.51-1.26-4.88-1.34-9.91-3.51-14.44-6.28-3.24-1.98-7.08-3.85-10.04-6.28-2.08-1.7-6.26-6.47-8.16-7.53-.3-.17-.82.12-.94,0-.12-.12.17-.64,0-.94-2-3.59-10.88-9.96-11.93-14.44-.14-.62.09-1.5,0-2.2l-.63.94-1.26.31.63-1.57c-.35-.56-1.77-1.47-1.88-1.88-1.32-4.59-4.2-8.43-5.65-12.55-.89-2.54-1.8-5.06-2.51-7.53-1.35-4.72-3.27-11.47-3.77-16.32-.22-2.1.15-4.46,0-6.59l-1.26.31c0-.21.59-.39.63-.63.64-3.87-.28-9.59,0-13.81.35-5.19,1.91-10.77,3.14-15.69,1.39-5.6,2.78-11.05,5.34-16.63l-.31-1.88,1.26.31,3.14-7.85c3.36-.41,2.62-5.43,5.65-7.22-1.41-.99.14-1.52,0-2.82-3.24,4.31-6.75,8.78-9.41,13.49-2.39,4.23-4.49,9.92-5.65,14.44-1.63,6.33-3.22,12.22-4.39,18.83-.84,4.75-2.09,9.39-.63,14.44.99,3.42.25,7.97.63,12.55.26,3.2,1.38,9.29,2.51,12.55,1.12,3.22,2.26,7.32,3.77,10.04.8,1.45.85,1.63,1.26,3.14.63,2.35,2.26,5.12,3.14,8.16.45,1.56,4.16,3.53,3.14,5.96h1.26c2.24,5.06,7.62,9.31,10.67,14.12.61.96,2.43,1.24,3.14,2.51.17.3-.12.82,0,.94.1.1.59-.13.94,0,.53.19.43,1.16,1.25,0l-.31.94c3.74,3.16,7.57,7.26,12.24,10.36,1.89,1.25,4.35,2.44,6.28,3.14,3.11,1.13,5.68,3.94,8.79,5.02,3.29,1.15,7.28,2.29,10.67,3.14,4.37,1.09,9.55,3.27,13.81,3.77,2.9.34,6.65.13,9.41.63,6.28,1.12,15.82.43,22.6-1.25,2.75-.68,5.41-.61,8.16-1.26,2.02-.47,3.91-1.58,5.96-1.88v-1.26l2.2.63.31-2.51,2.82.63c2.41-2.14,7.93-1.84,8.47-5.02l.94.63c2.91-2.22,8.77-3.61,10.36-6.9,3.42-.25,7.27-3.62,9.41-6.28h-1.26v-.31l1.26-.94v1.25c.07-.09,1.08.23.63-1.25l1.26.63c-.21-.85.82-2.09,1.57-2.51,1.63-.91,5.29-5.2,5.96-7.53h1.25c1.44-3.24,4.18-6.56,5.65-9.73.79-1.71,2.26-3.13,3.14-5.02l-.31-1.57.94.63v-1.88h1.26c.87-2.75,2.32-5,3.14-7.85.13-.45,2.38-3.93,2.51-4.39,1.24-4.19,2.03-7.97,3.14-11.93.79-2.81,1.72-5.96,2.51-8.79.12-.42-.07-1.06,0-1.57ZM204.84,103.62h.63v1.26h-.63v-1.26ZM175.03,38.97c-.41,0-.41-.63,0-.63s.41.63,0,.63ZM174.09,37.72v-1.88h.31l.94.94-1.26.94ZM196.06,66.59h-.63v-1.26h.63v1.26ZM10.9,96.72h1.25v.63h-1.25v-.63ZM14.03,131.24h-1.26v-1.25h1.26v1.25ZM58.91,193.38c-.41,0-.41-.63,0-.63s.41.63,0,.63ZM63.31,195.26c-.41,0-.41-.63,0-.63s.41.63,0,.63ZM69.9,199.03h-.63v-1.26h.63v1.26ZM77.43,200.91h-1.26v-.63h1.26v.63ZM88.41,204.68c-.41,0-.41-.63,0-.63s.41.63,0,.63ZM102.85,206.56l-.31-.31.94-.94.31.31-.94.94ZM106.61,205.93c-.41,0-.41-.63,0-.63s.41.63,0,.63ZM120.74,206.56h-1.26v-.63h1.26v.63ZM135.17,202.79h-1.26v-1.26h1.26v1.26ZM138.62,202.16c-.41,0-.41-.63,0-.63s.41.63,0,.63ZM168.75,185.85c-.41,0-.41-.63,0-.63s.41.63,0,.63ZM191.98,158.23c-.41,0-.41-.63,0-.63s.41.63,0,.63ZM200.14,140.65c-.41,0-.41-.63,0-.63s.41.63,0,.63ZM202.96,131.87h-.63v-1.26h.63v1.26ZM204.84,124.34h-.63v-1.25h.63v1.25Z"/>
    <path class="cls-4" d="M40.71,39.6c1.33-.37,6.24-6.55,8.47-6.28v-1.26c1.31.12,2.28-1.32,3.14-1.88h-1.26v-1.26c-1.99.47-3.95,2.29-5.65,3.45l.31.94c-.95-1.37-1.31.84-2.51.63l.94.94c-.8,1.41-1.91.68-2.82.94-.29.08-2.25,3.09-2.82,3.77.68-.1,1.62.16,2.2,0ZM48.87,30.81c.41,0,.41.63,0,.63s-.41-.63,0-.63Z"/>
    <path class="cls-4" d="M33.49,48.07v-2.82c-.97,1.22-2.05,2.32-3.14,3.77,1.35.05,2.34.26,3.14-.94Z"/>
    <path class="cls-4" d="M36.63,44.31c.23-.55-.27-1.59.94-2.2h1.57l-.63-2.51c-1.63,1.92-3.26,3.43-5.02,5.65l2.51.63c-.32-1.04.46-1.17.63-1.57Z"/>
    <path class="cls-4" d="M31.29,50.27c.41,0,.41-.63,0-.63s-.41.63,0,.63Z"/>
  </g>
</svg>