<?xml version="1.0" encoding="UTF-8"?>
<svg xmlns="http://www.w3.org/2000/svg" viewBox="0 0 186.83 186.83">
  <defs>
    <style>
      .cls-1 {
        fill: #ff4a03;
      }

      .cls-2 {
        fill: #e7e7e7;
      }

      .cls-3 {
        fill: #ed4484;
      }

      .cls-4 {
        fill: #e7e7e7;
      }
    </style>
  </defs>
  <g id="background">
    <circle class="cls-1" cx="93.41" cy="93.41" r="93.41"/>
  </g>
  <g id="text">
    <g>
      <path class="cls-2" d="M36.68,83.76c-.54,0-.79-.22-.79-.76l-.06-9.73c0-.54-.19-.76-.73-.76h-2.47c-.54,0-.79-.22-.79-.76l-.1-4.81c0-.54.19-.76.73-.76l14.48-.06c.54,0,.79.22.79.76l.1,4.81c0,.54-.19.76-.73.79l-2.66.06c-.54.03-.79.25-.79.79l-.03,9.53c0,.67-.19.92-.82.92l-6.11-.03Z"/>
      <path class="cls-2" d="M47.64,79.96c0-4.5,5.19-4.69,7.19-4.75,1.3-.03,1.81-.1,1.81-.76,0-.51-.29-.79-.73-.79-.28,0-.48.13-.63.25-.41.32-.6.44-1.55.48l-4.75.1c-.54,0-.63-.19-.63-.67,0-2.85,3.39-5.26,8.27-5.26s7.41,2.5,7.41,6.81l.03,7.48c0,.54-.41.92-1.11.92h-5.42c-.6,0-.73-.29-.82-.63-.06-.22-.16-.32-.32-.32-.38,0-.7.6-1.84.98-.51.16-1.17.29-2.03.29-3.2,0-4.88-1.58-4.88-4.12ZM56.57,79.04c0-.32-.1-.89-.7-.89-.41,0-1.14.25-1.14.95,0,.41.25.73.98.73.32,0,.86-.06.86-.79Z"/>
      <path class="cls-2" d="M65.69,86.08l-.06-16.35c0-.54.22-.79.76-.79l5.73-.13c.82-.03.89.22.92.76,0,.29.06.35.16.35.29,0,.57-.54,1.43-.92.48-.22,1.17-.41,2.09-.41,3.2,0,6.43,2.06,6.43,7.73s-3.17,7.79-6.24,7.79c-1.62,0-2.47-.41-3.23-1.01-.16-.13-.25-.16-.35-.16-.16,0-.19.16-.19.38l-.03,2.63c0,.54-.25.89-1.14.89h-5.54c-.54,0-.73-.22-.73-.76ZM75.38,76.32c.03-1.46-.63-1.9-1.27-1.9-.51,0-.95.32-.95,1.01l-.03,1.9c0,.63.51.89.98.89.6,0,1.27-.44,1.27-1.9Z"/>
      <path class="cls-2" d="M99.49,83.07l-.06-6.94c0-.82-.32-1.05-.79-1.05-.44,0-.86.19-.86.89l-.03,6.91c0,.7-.38.89-1.11.89h-5.54c-.54,0-.79-.22-.79-.76l-.03-16.69c0-.54.22-.79.76-.79l5.92-.06c.54,0,.76.19.76.73l.06,3.29c0,.25.09.35.29.35.09,0,.19-.06.29-.13.67-.48,1.46-1.14,3.55-1.14,2.85,0,5.1,1.39,5.07,6.27l-.03,8.11c0,.54-.22.79-.76.79l-5.89.06c-.54,0-.79-.19-.79-.73Z"/>
      <path class="cls-2" d="M108.1,76.35c0-4.81,3.36-7.79,8.49-7.79s8.43,3.04,8.43,7.79c0,.57-.32.76-.86.76l-6.68.16c-.25,0-.67-.03-.82-.06-.22-.03-.38-.1-.54-.1-.29,0-.51.19-.51.7,0,.82.57,1.2,1.17,1.2.32,0,.54-.1.79-.22.38-.19.6-.25,1.14-.29l4.5-.13c1.01-.03,1.52.19,1.52.89,0,.98-1.01,2.47-2.44,3.42-1.3.86-3.14,1.39-5.45,1.39-5.45,0-8.74-2.98-8.74-7.73ZM117.2,74.67c.35,0,.54-.19.54-.51,0-.48-.44-.95-1.04-.95-.54,0-1.05.41-1.05.95,0,.38.22.51.57.51h.98Z"/>
      <path class="cls-2" d="M126.32,82.97l-.03-13.24c0-.54.22-.76.76-.76l5.89-.09c.7,0,.76.35.82.73.03.22.09.29.19.29s.19-.06.38-.25c.6-.57,1.3-.98,2.38-.98.29,0,.57.03.82.09.48.13.73.41.73.89l.06,5.39c0,.44-.13.6-.51.6-.32,0-.63-.09-1.3-.09-.79,0-2.72.13-2.72,1.93l-.03,5.39c0,.54-.35.92-1.11.92h-5.54c-.54,0-.79-.25-.79-.79Z"/>
      <path class="cls-2" d="M138.89,76.35c0-4.81,3.36-7.79,8.49-7.79s8.43,3.04,8.43,7.79c0,.57-.32.76-.86.76l-6.68.16c-.25,0-.67-.03-.82-.06-.22-.03-.38-.1-.54-.1-.29,0-.51.19-.51.7,0,.82.57,1.2,1.17,1.2.32,0,.54-.1.79-.22.38-.19.6-.25,1.14-.29l4.5-.13c1.01-.03,1.52.19,1.52.89,0,.98-1.01,2.47-2.44,3.42-1.3.86-3.14,1.39-5.45,1.39-5.45,0-8.74-2.98-8.74-7.73ZM147.98,74.67c.35,0,.54-.19.54-.51,0-.48-.44-.95-1.04-.95-.54,0-1.05.41-1.05.95,0,.38.22.51.57.51h.98Z"/>
      <path class="cls-2" d="M26.51,102.42l.03-7.25c0-.6.19-.82.76-.98,1.05-.32,1.33-.86,1.3-2.22,0-.86.22-1.05.92-1.08l3.61-.1c.67,0,.86.22.89.76l.09,1.93c.03.54.25.73.79.73h1.71c.7,0,.92.22.92.76l.09,3.74c0,.54-.19.73-.73.76l-2.06.09c-.54.03-.76.25-.76.79l-.03,1.58c-.03,1.27.7,1.74,1.9,1.74,1.14,0,1.52.03,1.55,1.01l.06,3.23c0,.51-.19.79-.67.98-1.01.38-2.12.51-3.33.51-4.97,0-7.1-2.12-7.06-7Z"/>
      <path class="cls-2" d="M38.45,101.66c0-4.78,3.17-7.76,8.9-7.76s8.9,2.98,8.9,7.76-3.17,7.76-8.9,7.76-8.9-2.98-8.9-7.76ZM48.49,101.66c0-1.58-.48-2.09-1.14-2.09s-1.14.51-1.14,2.09.48,2.09,1.14,2.09,1.14-.51,1.14-2.09Z"/>
      <path class="cls-2" d="M64.17,109.11c-.54,0-.73-.22-.73-.76l-.06-16.66c0-.54.22-.79.76-.79l5.92-.06c.54,0,.73.19.73.73l.06,16.66c0,.67-.41.92-1.14.92l-5.54-.03Z"/>
      <path class="cls-2" d="M71.96,105.31c0-4.5,5.19-4.69,7.19-4.75,1.3-.03,1.81-.09,1.81-.76,0-.51-.29-.79-.73-.79-.28,0-.48.13-.63.25-.41.32-.6.44-1.55.47l-4.75.1c-.54,0-.63-.19-.63-.67,0-2.85,3.39-5.26,8.27-5.26s7.41,2.5,7.41,6.81l.03,7.48c0,.54-.41.92-1.11.92h-5.42c-.6,0-.73-.29-.82-.63-.06-.22-.16-.32-.32-.32-.38,0-.7.6-1.84.98-.51.16-1.17.29-2.03.29-3.2,0-4.88-1.58-4.88-4.12ZM80.9,104.39c0-.32-.1-.89-.7-.89-.41,0-1.14.25-1.14.95,0,.41.25.73.98.73.32,0,.86-.06.86-.79Z"/>
      <path class="cls-2" d="M89.8,103.15l.03-8.08c0-.54.22-.79.76-.79l5.89-.06c.54,0,.79.19.79.73l.06,6.94c0,.82.32,1.05.79,1.05.44,0,.85-.19.85-.89l.03-6.81c0-.7.38-.89,1.11-.89h5.54c.54,0,.79.22.79.76l.03,13.15c0,.54-.22.79-.76.79l-5.86.09c-.57,0-.79-.22-.86-.67-.03-.25-.1-.35-.29-.35-.09,0-.16.03-.29.13-.7.54-1.49,1.17-3.58,1.17-2.85,0-5.1-1.36-5.07-6.27Z"/>
      <path class="cls-2" d="M117.42,108.41l-.06-6.94c0-.82-.32-1.05-.79-1.05-.44,0-.85.19-.85.89l-.03,6.91c0,.7-.38.89-1.11.89h-5.54c-.54,0-.79-.22-.79-.76l-.03-13.24c0-.54.22-.79.76-.79l5.86-.09c.57,0,.79.19.86.63.03.25.09.35.29.35.09,0,.16-.03.29-.13.7-.54,1.49-1.17,3.58-1.17,2.85,0,5.1,1.36,5.07,6.27l-.03,8.11c0,.54-.22.79-.76.79l-5.89.06c-.54,0-.79-.19-.79-.73Z"/>
      <path class="cls-2" d="M126.03,101.63c0-4.88,3.26-7.73,8.9-7.73,2.53,0,4.34.57,5.73,1.65,1.65,1.27,2.5,3.23,2.5,4.56,0,.63-.19.76-.63.79l-5.73.09c-.7,0-.86-.22-1.11-.7-.22-.44-.38-.73-.82-.73-.67,0-1.08.7-1.08,2.12,0,1.33.35,2.06,1.01,2.06.29,0,.54-.13.73-.54.32-.63.41-.7,1.11-.7l5.7-.09c.6,0,.67.22.67.73,0,2.03-1.05,3.86-2.85,4.97-1.46.89-3.36,1.3-5.42,1.3-5.48,0-8.71-2.98-8.71-7.79Z"/>
      <path class="cls-2" d="M153.69,108.41l-.06-6.94c0-.82-.32-1.05-.79-1.05-.44,0-.86.19-.86.89l-.03,6.91c0,.7-.38.89-1.11.89h-5.54c-.54,0-.79-.22-.79-.76l-.03-16.69c0-.54.22-.79.76-.79l5.92-.06c.54,0,.76.19.76.73l.06,3.29c0,.25.1.35.29.35.1,0,.19-.06.29-.13.67-.48,1.46-1.14,3.55-1.14,2.85,0,5.1,1.39,5.07,6.27l-.03,8.11c0,.54-.22.79-.76.79l-5.89.06c-.54,0-.79-.19-.79-.73Z"/>
      <path class="cls-2" d="M59.24,134.45c-.54,0-.79-.22-.79-.76l-.03-13.24c0-.54.22-.79.76-.79l5.89-.06c.54,0,.79.19.79.73l.03,13.24c0,.54-.25.92-1.11.92l-5.54-.03ZM59.69,117.02c0-.44.13-.73.7-.76l3.36-.13c.57-.03.89.35.89,1.14,0,.47-.29.76-1.05.76l-3.01.03c-.54,0-.89-.25-.89-1.05Z"/>
      <path class="cls-2" d="M76.83,133.75l-.06-6.94c0-.82-.32-1.05-.79-1.05-.44,0-.86.19-.86.89l-.03,6.91c0,.7-.38.89-1.11.89h-5.54c-.54,0-.79-.22-.79-.76l-.03-13.24c0-.54.22-.79.76-.79l5.86-.1c.57,0,.79.19.85.63.03.25.1.35.29.35.1,0,.16-.03.29-.13.7-.54,1.49-1.17,3.58-1.17,2.85,0,5.1,1.36,5.07,6.27l-.03,8.11c0,.54-.22.79-.76.79l-5.89.06c-.54,0-.79-.19-.79-.73Z"/>
      <path class="cls-2" d="M103.31,133.65c-.19-.54-.38-.79-1.39-.79h-2.66c-.54,0-.73.13-.86.63-.16.63-.67.89-1.27.89l-5.8-.09c-.35,0-.57-.13-.57-.38,0-.13.06-.35.16-.6l5.45-15.74c.16-.51.44-.73.98-.73l7.48-.03c.54,0,.82.19,1.01.73l5.29,15.97c.09.29.16.51.16.6,0,.29-.22.41-.57.41l-6.34.03c-.54,0-.82-.19-1.08-.89ZM101.22,127.19c.41,0,.57-.16.57-.44,0-.1-.03-.32-.1-.51l-.54-2c-.03-.13-.09-.25-.29-.25-.13,0-.25.06-.29.25l-.48,1.96c-.06.29-.09.44-.09.57,0,.25.22.41.63.41h.57Z"/>
      <path class="cls-2" d="M121.65,133.78l-.95-2.44c-.16-.38-.25-.51-.51-.51-.22,0-.35.09-.35.54l.03,2.15c0,.63-.25.89-1.11.89h-5.73c-.54,0-.76-.22-.76-.76l-.06-16.03c0-.54.22-.79.76-.79l8.33-.06c6.05-.03,8.52,2.72,8.52,7,0,2.09-.6,3.45-1.68,4.56-.25.25-.35.47-.35.7,0,.16.03.32.19.63l1.71,3.74c.16.35.19.51.19.6,0,.25-.19.38-.54.38l-6.65.09c-.54,0-.85-.19-1.04-.7ZM122.06,123.8c0-.73-.48-1.33-1.27-1.33-.51,0-.76.25-.76.89v.76c0,.79.29,1.01.79,1.01.89,0,1.24-.7,1.24-1.33Z"/>
    </g>
    <polygon class="cls-3" points="50.29 56.58 50.02 56.04 49.21 56.04 49.48 56.58 50.29 56.58"/>
    <rect class="cls-3" x="17.35" y="110.04" width="1.08" height="1.08"/>
    <rect class="cls-3" x="15.73" y="81.42" width="1.08" height=".54"/>
    <path class="cls-4" d="M151.93,152.06l.54.27v-.54s-.54-.07-.54.27Z"/>
    <path class="cls-4" d="M143.83,90.77l-.54.54c.62.09.46-.42.54-.54Z"/>
  </g>
  <g id="circle">
    <g>
      <path class="cls-4" d="M45.01,25.97c2.4-1.59,4.86-2.61,6.75-4.86l.54.54c.71-1.24,2.92-1.39,3.51-2.43.14-.25-.1-.71,0-.81.11-.11,2.07-.06,1.62-1.62h.54v1.08c.89.29,1.04-.43,1.35-.54,1.97-.69,4.11-1.1,5.94-1.62,4.61-1.31,9-2.93,13.5-3.78l.81.54v-1.08c1.27.71,3.08.73,4.59.54.55-.07,2.28-1.4,3.24,0,2.42-1.92,5.53-.88,7.56-.54,2.64.44,7.52.08,9.99-.54v1.08c.78.08,1.69-.12,2.43,0,3.01.48,7.21,2.18,10.26,3.24,3.66,1.27,7.6,2.28,10.8,3.78,2.49,1.17,5.25,2.87,7.56,4.32.62.39,1.32,1.25,2.16,1.62l1.89-.54-.54,1.35c.51.59,1.24.95,1.89,1.35.24.14.67-.1.81,0l-.54-1.08,2.16-.54c-2.34-1.8-3.1-2.23-5.67-3.78-2.25-1.36-3.96-3.2-6.48-3.78l-.81.54v-1.08c-.07-.09-.47.09-.54,0v1.08h-1.62v-1.08h1.62c-2.77-3.35-2.23-1.36-5.13-2.16-.29-.08-2.41-2.08-2.7-2.16-.58-.16-1.52.14-2.16,0-.45-.1-2.25-1.52-2.7-1.62-2.19-.48-4.66-.52-7.02-1.08-3-.71-5.73-1.58-8.64-1.08-1.88.32-5.55-1.41-8.64-1.08-1.96.21-3.44.87-5.4.54-1.88-.31-6.81.62-8.64,1.08-2.64.66-5.55.53-8.1,1.08-.47.1-2.17,1.48-2.7,1.62-.47.13-1.2-.14-1.62,0-2.43.81-4.73,2.39-7.02,3.24-5.32,1.97-12.78,4.53-15.93,9.18h1.08v1.08ZM141.94,24.89c.35,0,.35.54,0,.54s-.35-.54,0-.54ZM133.03,20.03h1.08v.54h-1.08v-.54ZM120.88,14.09h.81v1.08h-1.62l.81-1.08ZM113.59,12.47h1.08v.54h-1.08v-.54ZM64.72,14.09c.35,0,.35.54,0,.54s-.35-.54,0-.54ZM50.68,20.03c.35,0,.35.54,0,.54s-.35-.54,0-.54ZM49.33,21.11h.54v1.08h-.54v-1.08ZM46.63,23.27h1.08v.54h-1.08v-.54Z"/>
      <path class="cls-4" d="M177.85,103.19c-.92.65-1.25.51-1.62-.54l1.62-.27c.07-.52-.1-1.14,0-1.62,1.05-5.08.87-12.68,0-17.82-.35-2.06-1.11-4.46-1.62-6.48-1.01-3.99-2.14-8.03-3.24-11.88-.9-3.13-1.79-5.92-3.24-9.18l-2.7-2.16c-.05-.37,1.72.81,1.08-.54-.21-.44-.83-1.16-1.08-1.62-1.83-3.27-4.54-6.06-5.4-9.45-.09-.09-.52.12-.81,0-1.3-.54-2.18-1.86-2.97-2.97-3.96-5.58-8.66-9.09-14.04-13.23v1.08l-1.62.54c.14.09.79,1.27,1.35,1.62.15.09.81-.07,1.08.54l1.35-.54c-.26,1.73,1.51,3.5,3.24,3.24l-.54.81,4.05,4.05.81-1.08c-.5,2.28,1.39,3.12,2.7,4.59l2.16-.27-1.62.54,1.08,2.7h1.62l-.54.81,4.05,5.67.81-.54c-1.1,2.53,1.89,3.66,2.16,4.59.67,2.35,1.81,3.78,2.7,5.94.12.29-.09.7,0,.81l1.08-.27c-.54.34-.73,1-.54,1.62.33,1.1,1.17,2.53,1.62,3.78,1.21,3.34,2.03,7.26,2.7,10.8.32,1.68.23,3.95.54,5.4.04.18,1.04,1.44,1.08,1.62.38,1.77-.32,4.58,0,6.48.23,1.39-.5,2.98.54,4.32-1.13,16.34-4.38,31.13-13.5,44.82-.68,1.02-1.4,2.23-2.16,3.24l.54.81h-1.62l-.54,2.16h-1.08c.25,1.44-1.87,1.8-1.62,3.24h-1.08v1.08h-1.08c.12.85-.57,1.47-1.08,2.16l.54.27c0,.34-.52.25-.54.27-1.33,1.35-5.72,4.06-7.56,5.4v1.08l-2.16.54v1.08c-7.83,3.87-15.21,8.6-23.49,11.34-.34.11-.92-.06-1.35,0v1.08l-1.89-.54c-2.11.85-5.61,2.46-7.56,2.7-1.69.21-3.67-.15-5.4,0l-.81,1.62h-.54v-1.08c-.95.09-2.06-.14-2.97,0-.44.07-1.78,1.38-2.7,0-6.69.74-14.1.09-20.52-1.62-3.42-.91-6.81-1.6-10.26-2.7-1.18-.38-1.98-1.03-2.16-1.08-4.2-1.16-8.53-3.02-12.42-5.4-2.78-1.7-6.09-3.31-8.64-5.4-1.79-1.46-5.39-5.57-7.02-6.48-.26-.14-.71.1-.81,0-.1-.1.14-.55,0-.81-1.72-3.09-9.36-8.57-10.26-12.42-.12-.53.08-1.29,0-1.89l-.54.81-1.08.27.54-1.35c-.3-.48-1.52-1.27-1.62-1.62-1.14-3.95-3.61-7.25-4.86-10.8-.77-2.19-1.55-4.35-2.16-6.48-1.16-4.06-2.81-9.87-3.24-14.04-.19-1.81.13-3.83,0-5.67l-1.08.27c0-.18.51-.33.54-.54.55-3.33-.24-8.25,0-11.88.3-4.47,1.65-9.26,2.7-13.5,1.2-4.82,2.39-9.5,4.59-14.31l-.27-1.62,1.08.27,2.7-6.75c2.89-.35,2.26-4.67,4.86-6.21-1.21-.86.12-1.31,0-2.43-2.79,3.71-5.81,7.55-8.1,11.61-2.06,3.64-3.86,8.54-4.86,12.42-1.4,5.45-2.77,10.51-3.78,16.2-.73,4.09-1.8,8.08-.54,12.42.85,2.94.22,6.85.54,10.8.23,2.76,1.18,7.99,2.16,10.8.96,2.77,1.94,6.3,3.24,8.64.69,1.25.73,1.4,1.08,2.7.54,2.02,1.95,4.4,2.7,7.02.39,1.34,3.57,3.04,2.7,5.13h1.08c1.93,4.35,6.56,8.01,9.18,12.15.52.83,2.09,1.07,2.7,2.16.14.25-.1.71,0,.81.09.09.51-.11.81,0,.46.17.37,1,1.08,0l-.27.81c3.22,2.71,6.52,6.24,10.53,8.91,1.62,1.08,3.74,2.1,5.4,2.7,2.68.97,4.89,3.39,7.56,4.32,2.83.99,6.26,1.97,9.18,2.7,3.76.94,8.22,2.81,11.88,3.24,2.49.29,5.72.12,8.1.54,5.4.96,13.61.37,19.44-1.08,2.36-.59,4.65-.53,7.02-1.08,1.74-.41,3.36-1.36,5.13-1.62v-1.08l1.89.54.27-2.16,2.43.54c2.07-1.85,6.82-1.58,7.29-4.32l.81.54c2.51-1.91,7.54-3.1,8.91-5.94,2.94-.22,6.26-3.11,8.1-5.4h-1.08v-.27l1.08-.81v1.08c.06-.08.93.2.54-1.08l1.08.54c-.18-.73.7-1.8,1.35-2.16,1.41-.78,4.55-4.47,5.13-6.48h1.08c1.24-2.79,3.6-5.64,4.86-8.37.68-1.47,1.94-2.69,2.7-4.32l-.27-1.35.81.54v-1.62h1.08c.74-2.37,1.99-4.3,2.7-6.75.11-.38,2.04-3.39,2.16-3.78,1.06-3.6,1.74-6.86,2.7-10.26.68-2.42,1.48-5.13,2.16-7.56.1-.36-.06-.92,0-1.35ZM176.23,89.15h.54v1.08h-.54v-1.08ZM150.58,33.53c-.35,0-.35-.54,0-.54s.35.54,0,.54ZM149.77,32.45v-1.62h.27l.81.81-1.08.81ZM168.67,57.29h-.54v-1.08h.54v1.08ZM9.37,83.21h1.08v.54h-1.08v-.54ZM12.07,112.91h-1.08v-1.08h1.08v1.08ZM50.68,166.37c-.35,0-.35-.54,0-.54s.35.54,0,.54ZM54.46,167.99c-.35,0-.35-.54,0-.54s.35.54,0,.54ZM60.13,171.23h-.54v-1.08h.54v1.08ZM66.61,172.85h-1.08v-.54h1.08v.54ZM76.06,176.09c-.35,0-.35-.54,0-.54s.35.54,0,.54ZM88.48,177.71l-.27-.27.81-.81.27.27-.81.81ZM91.72,177.17c-.35,0-.35-.54,0-.54s.35.54,0,.54ZM103.87,177.71h-1.08v-.54h1.08v.54ZM116.29,174.47h-1.08v-1.08h1.08v1.08ZM119.26,173.93c-.35,0-.35-.54,0-.54s.35.54,0,.54ZM145.18,159.89c-.35,0-.35-.54,0-.54s.35.54,0,.54ZM165.16,136.13c-.35,0-.35-.54,0-.54s.35.54,0,.54ZM172.18,121.01c-.35,0-.35-.54,0-.54s.35.54,0,.54ZM174.61,113.45h-.54v-1.08h.54v1.08ZM176.23,106.97h-.54v-1.08h.54v1.08Z"/>
      <path class="cls-4" d="M35.02,34.07c1.15-.32,5.37-5.63,7.29-5.4v-1.08c1.13.1,1.96-1.13,2.7-1.62h-1.08v-1.08c-1.71.4-3.4,1.97-4.86,2.97l.27.81c-.82-1.17-1.13.72-2.16.54l.81.81c-.69,1.21-1.65.59-2.43.81-.25.07-1.94,2.66-2.43,3.24.59-.09,1.39.14,1.89,0ZM42.04,26.51c.35,0,.35.54,0,.54s-.35-.54,0-.54Z"/>
      <path class="cls-4" d="M28.81,41.36v-2.43c-.83,1.05-1.76,1.99-2.7,3.24,1.16.04,2.02.22,2.7-.81Z"/>
      <path class="cls-4" d="M31.51,38.12c.2-.47-.23-1.37.81-1.89h1.35l-.54-2.16c-1.4,1.66-2.81,2.95-4.32,4.86l2.16.54c-.28-.89.4-1,.54-1.35Z"/>
      <path class="cls-4" d="M26.92,43.25c.35,0,.35-.54,0-.54s-.35.54,0,.54Z"/>
    </g>
  </g>
</svg>