<?xml version="1.0" encoding="UTF-8"?>
<svg id="Layer_1" xmlns="http://www.w3.org/2000/svg" version="1.1" viewBox="0 0 104.22 85.22">
  <!-- Generator: Adobe Illustrator 30.1.0, SVG Export Plug-In . SVG Version: 2.1.1 Build 136)  -->
  <path d="M1.51,43.13c-.18,2.13-.27,3.73-.27,4.8s.14,2.65.43,4.73.95,4.15,2,6.21c1.05,2.07,2.5,4.28,4.36,6.63,1.38,1.88,3.35,3.67,5.91,5.37s5.13,3.04,7.71,4.01,5.16,1.87,7.76,2.67c2.6.81,4.65,1.27,6.16,1.4,1.51.13,2.45.16,2.82.09.34-.24,1.9.05,4.68.88,2.78.83,4.92,1.06,6.44.69.76-.18,1.65-.26,2.69-.23,1.03.03,2.18.18,3.46.45,1.27.27,2.37.51,3.28.73s2,.52,3.26.9c1.26.38,1.97.59,2.15.61,1.26.18,3.55-.24,6.9-1.24,3.34-1.01,5.48-1.8,6.42-2.36.66-.37,3.53-2.54,8.6-6.5,5.07-3.96,7.77-6,8.09-6.13.77-.24,2.8-3.38,6.09-9.43l.6-2.97c.39-1.92.76-4.08,1.1-6.47s.45-4.06.34-5.01c-.14-1.18-.18-3.57-.13-7.17.05-3.6.04-6.01-.03-7.24-.76-4.53-3.49-8.9-8.2-13.11-2.3-2.24-6.16-4.52-11.56-6.83-5.4-2.31-10.28-4-14.64-5.08-7.99-1.66-18.21-2.29-30.64-1.9-2.98-.02-6.68,1.13-11.1,3.44-4.41,2.31-8.31,4.84-11.68,7.58-3.38,2.75-5.55,4.95-6.52,6.62-1.29,2.26-2.61,5.97-3.95,11.12-1.34,5.16-2.19,9.4-2.54,12.72Z" style="fill: #ff7256;"/>
  <g>
    <path d="M36.31,35.79l.03-.14h-.03s-.04-.02-.05-.02c-.05-.05-.9-.07-2.54-.07-.24.03-.39.06-.45.1h-.24c-.26-.03-.45-.07-.58-.12-.02-.02-.07-.05-.15-.1-.1.11-.19.13-.28.05h-.06s-.06.02-.11.02h-.08c-.08.05-.17.07-.27.07,0,.02-.12.02-.36.02l-.36-.02s-.05,0-.08-.01c-.03,0-.05-.01-.06-.01-.13.02-.2.12-.23.31h-.05c0,.08,0,.19,0,.34,0,.14,0,.25,0,.31-.01.16-.02.4-.02.71v1.38c0,.32.01.78.03,1.39,0,.24.01.57.03.98,0,.22.02.42.06.6.01.11-.02.17-.1.17h-.03s-.22.02-.52-.02c-.08,0-.12.02-.15.05-.09.05-.17.03-.26-.05-.09-.11-.17-.09-.26.07-.04.06-.07.1-.07.12,0,.02-.02.02-.04.02s-.04,0-.05-.02c-.01-.02-.03-.06-.06-.12l-.11-.17c-.12.08-.2.11-.23.08-.04-.02-.07-.13-.09-.32-.01-.02-.02-.03-.02-.05.01-.21-.05-.4-.19-.58l.21-.07c.04-.16.02-.31-.06-.46-.1-.13-.11-.35-.05-.67.05-.19.03-.4-.08-.62-.06-.13-.06-.22,0-.29.02-.03.02-.1,0-.19-.01-.09,0-.23.03-.41.02-.14.02-.3-.02-.48-.01-.08,0-.21.03-.38.06-.18.08-.36.05-.55v-.79c0-.09-.01-.27-.03-.53l.05-.22v-.53c-.02-.82.04-1.5.19-2.06l.05-.29c.02-.14.04-.22.05-.24.04-.09.08-.23.11-.42.04-.19.08-.33.11-.42.11-.52.2-.84.26-.96.03-.05.09-.28.19-.69l.33-1.22.1-.29s.04-.09.08-.23c.04-.14.09-.23.13-.28.02-.03.03-.06.03-.07.09-.26.24-.54.47-.86.04-.05.1-.13.16-.24.06-.11.11-.18.13-.21.06-.08.11-.1.15-.07.06.03.21-.04.44-.22l.16-.14s.05-.04.09-.06c.04-.02.06-.05.07-.08.04-.06.11-.1.19-.12.04,0,.12-.02.23-.05.11-.03.19-.05.26-.05.01,0,.08-.02.19-.05.11-.03.18-.03.21,0,.01.02.03.02.05,0l.06-.02s.07-.03.15-.04c.08,0,.13-.04.18-.11h.03c.06,0,.27-.05.61-.17.03,0,.07,0,.11.01.04,0,.08.01.11.01h.08c.11-.02.22,0,.32.07.2.12.51.29.92.5.45.24.81.48,1.07.72.06.05.14.12.23.23.09.11.21.19.35.25l.15.34s.06.14.15.37c.03.07.07.17.13.3s.1.24.13.3c0,.03,0,.06-.01.1-.01.04.04.12.16.24.03.03.05.09.07.16s.04.13.07.16c.02.21.03.4.02.56v.1l.02.66c.01.11.02.27.02.47,0,.2.01.34.02.42.03.51.06.84.08.98,0,.05,0,.08-.02.1-.03.08-.02.23.05.44.04.08.05.17.03.27-.02.13-.02.27.02.42.05.4.08.74.06,1.01,0,.29.02.53.06.72.02.18.03.3.02.36-.01.08-.01.2,0,.36.01.16,0,.27-.02.34l-.03,1.3c0,.22-.01.37-.03.46-.01.05-.01.12,0,.22,0,.09-.01.17-.06.22l.02.07s.03.08.02.1c-.01.03-.02.18-.02.43-.02.38-.04.63-.06.74-.03.37-.06.58-.08.62-.01.03,0,.07,0,.11s.02.08.02.11c-.02.26-.03.46-.03.62-.02.13-.03.21-.03.24.01.16-.02.31-.1.46h-.47c-.08.03-.18.04-.32.04-.14,0-.24,0-.31.01-.01,0-.06-.02-.16-.07-.09-.08-.12-.18-.11-.29.03-.13.02-.22-.05-.26l.03-.12c-.06-.11-.08-.24-.05-.38.01-.03.02-.19.02-.48,0-.13,0-.31,0-.55,0-.24,0-.42,0-.55,0-.21,0-.37-.02-.48,0-.05,0-.08-.02-.1-.02-.26-.03-.45-.03-.58v-.07c-.03-.11-.05-.22-.06-.34,0-.11,0-.24,0-.37,0-.14,0-.24,0-.32v-.26c.02-.14.01-.26-.03-.36-.01-.06-.01-.14,0-.24ZM30.48,33.85s.03-.02.05-.02c.02.13.06.19.13.19.03,0,.08,0,.14.01s.11.01.15.01.11,0,.21.02c.1.02.18.02.24,0,.23-.05.36-.08.4-.09l.29-.17s.06-.02.1-.06c.05-.04.09-.06.12-.06.01,0,.05,0,.1.01s.09,0,.11-.04h.06s.09.04.21.01c.12-.02.19-.04.21-.04.01,0,.04,0,.08.01s.08.01.1.01c.08.02.18.02.31.02.01.02.03.02.05.01s.04-.01.05-.01c0-.06.02-.07.05-.02.03.03.09.04.17.01.08-.02.14,0,.17.06.02-.03.22-.08.61-.14.38-.06.76-.12,1.12-.18.37-.06.55-.11.55-.16h.11v-.31c-.03-.08-.03-.16,0-.24.01-.05,0-.11-.03-.19-.06-.08-.1-.14-.1-.17s.02-.09.06-.19c.03-.05.05-.1.06-.14-.08-.11-.1-.21-.06-.31.05-.08.04-.14-.03-.17-.03-.03-.06-.06-.07-.07-.02-.02-.02-.04-.02-.06,0-.02,0-.04.02-.06.01-.02.03-.05.06-.09,0-.06,0-.13,0-.19,0-.06,0-.11,0-.14,0-.09-.02-.16-.05-.19l-.08-.07c.04-.08.06-.14.06-.17.03-.06.02-.14-.03-.22-.03-.02-.06-.05-.09-.09-.04-.06-.05-.14-.03-.24.04-.11.04-.22,0-.33,0-.03-.02-.08-.03-.14,0-.06-.02-.11-.03-.14-.04-.13-.09-.23-.15-.31-.1-.09-.16-.26-.19-.48-.03-.26-.13-.36-.29-.31-.1.05-.16,0-.19-.12-.06-.16-.18-.24-.36-.24-.08,0-.14-.04-.19-.12-.03-.06-.08-.09-.15-.09-.13-.08-.24-.12-.34-.12-.02-.03-.04-.05-.06-.05-.14.05-.23.02-.27-.1-.03-.03-.06-.03-.08,0h-.11c-.16,0-.25,0-.27-.02-.02-.03-.08-.05-.16-.05h-.06c-.1,0-.15-.07-.15-.22-.03.02-.07.03-.11.05-.04.02-.08.04-.1.06-.03.02-.05.06-.06.11-.09,0-.13,0-.15.02-.01.02-.04.04-.08.06-.04.02-.08.06-.1.11-.03.05-.1.05-.21,0-.03-.02-.08,0-.13.02.03,0,.06.02.1.07-.05.1-.1.09-.15-.02-.02.03-.04.08-.05.13-.01.06-.03.1-.05.13-.1,0-.15.01-.17.04-.02.02-.04.12-.07.28-.02.16-.07.27-.15.31l-.03.05-.24.39s-.02.07-.03.1l-.02.05c-.01.19-.06.38-.15.56l-.02.07s-.02.07-.02.1c0,.08-.02.15-.06.22-.02.03-.03.08-.03.14.03.13.03.32,0,.56-.02.02-.06.11-.1.28,0,.02,0,.06-.02.14-.02.08-.04.15-.04.22,0,.16-.03.38-.08.65-.01.05-.02.14-.02.29v.31l-.05.21s0,.04-.02.07c-.01.03-.02.06-.02.07-.02.16-.03.26-.03.31v.02l-.05.36h.05c0,.11,0,.18.02.22ZM30.53,33.8l.02.02h-.02v-.02ZM36.66,41.5l.02-.02h-.02v.02ZM36.94,39.27h.03s.02,0,.02-.01,0-.01.02-.01l-.03-.05s-.03.06-.03.07ZM37.08,39.36h-.13c.04.06.09.06.13,0ZM36.97,38.72l.05.29s.02.05.03.1l.06-.1-.08-.12s.04,0,.05-.02c.03,0,.05,0,.06-.02.02-.05.03-.08.02-.09,0-.03-.02-.05-.05-.05-.02,0-.05,0-.08.01s-.05.01-.06.01ZM37.36,40.61l-.15-.05c.02.06.04.1.05.11.01,0,.02.01.03.01s.03-.02.06-.07ZM37.44,40.8l-.21-.07c-.01.11.03.18.11.21.02-.05.05-.09.1-.14ZM37.29,39.89s0,.03,0,.05c0,.02,0,.03,0,.05,0,.02.01.02.03.02v-.02s.02-.04.02-.07c-.01,0-.02,0-.03-.02ZM37.34,40.54l.03.07.08.07c.05.03.09.04.1.02.03-.05.04-.1.02-.14v-.12s-.08,0-.1.02l.1-.24-.11-.14-.02.02c0,.07,0,.1.02.12-.01.02-.03.02-.06.02-.12.06-.13.16-.05.29ZM37.49,39.2v-.07s-.01-.06-.03-.1c-.01-.02-.05-.02-.11-.02-.01,0-.02,0-.03.02-.01.02-.01.03,0,.05,0,.05.02.08.06.09.01.02.05.02.11.02ZM37.55,39.44s-.03,0-.06-.01c-.03,0-.06-.01-.08-.01-.03.1-.03.18,0,.26.05-.05.1-.13.15-.24Z" style="fill: #fff;"/>
    <path d="M40.9,26.56c-.03-.37.02-.69.14-.96.02-.1.09-.14.22-.14.1,0,.17-.02.22-.07.06-.05.28-.14.65-.26.05-.02.21,0,.48.02l.1.38c.03.09.07.14.12.14.03.02.09.06.17.13.08.07.16.1.24.08.1,0,.13.07.1.22-.06.14-.06.34.02.58.02.02.02.04.02.07v.6s0,.06-.01.09c0,.03-.01.06-.01.07-.02.03-.02.09-.02.19.02.1.04.25.06.47.02.22.05.38.08.49.03.1.06.38.1.86,0,.11,0,.18.02.22.05.24.06.45.05.62-.08.29-.09.56-.04.82.06.06.08.13.07.19-.05.11-.05.22,0,.33v.12l.06.36v.09c-.05.22-.03.56.09,1,.02.17.02.29,0,.36-.08.2-.06.35.07.46.02.01.02.06.02.15,0,.02.02.21.05.55s.03.54-.01.59c-.03.08,0,.17.09.26l.11,1.12.04.36c.04.13.09.23.15.31-.02,0-.03.03-.03.09.11.41.24.69.37.82.12.22.16.39.13.5l-.02.03h-.05c.03-.08,0-.13-.07-.15l.07.15c.02.12.07.16.17.13l.05-.25.43.35-.28.08c-.1.03-.12.08-.05.15.03.03.07.07.11.12.04.05.07.08.1.12s.06.06.1.09c.04.03.08.06.13.07l.07.07c0,.08.04.1.12.07.24-.03.39-.09.43-.19.05-.11.15-.15.29-.12l.29.07c.29.1.62.1.99.02.03,0,.06,0,.07-.02.03-.03.06-.05.07-.05l.22-.24s.07.02.17.02c.13,0,.22-.06.27-.17.05-.18.15-.29.31-.34.05-.02.07-.07.07-.17.03-.18.1-.29.22-.34.08-.03.13-.1.14-.19.05-.06.02-.14-.07-.24-.13-.13-.18-.26-.15-.38.03-.13.13-.22.29-.29l.1-.05.07-.48s-.05-.04-.11-.07c-.06-.03-.1-.07-.12-.11-.02-.04-.04-.09-.04-.16.03-.14.14-.24.31-.29.02-.13.02-.31.02-.55v-.05c-.14-.11-.14-.22.02-.34.08-.03.09-.09.02-.17,0-.03-.03-.08-.1-.14l.17-.34c-.06-.05-.1-.11-.12-.19,0-.06.03-.14.1-.22-.05-.05-.07-.09-.07-.12-.02,0-.02-.03,0-.1v-.1l.17-.26c-.11-.09-.14-.22-.07-.38.08-.18.08-.32,0-.43-.05-.03-.06-.06-.02-.1.05-.1.06-.27.02-.53v-.41s0-.06.01-.1c0-.03.01-.06.01-.09-.05-.1-.06-.3-.02-.62,0-.02-.02-.1-.05-.26-.08-.13-.08-.24,0-.34.05-.05.06-.13.02-.24-.06-.06-.07-.14-.02-.22.03-.03.04-.09.02-.17-.03-.08-.03-.16,0-.24.02-.02.02-.05.02-.1-.06-.09-.06-.22,0-.36v-.41c.05-.16.03-.29-.05-.38-.05-.06-.06-.13-.02-.19.05-.11.08-.22.08-.32,0-.1,0-.24-.02-.4s-.04-.26-.04-.31c-.03-.38.08-.7.34-.96.06-.06.14-.09.22-.09h.77c.32-.03.59-.02.82.05.24.05.35.2.34.46,0,.06,0,.16-.01.3,0,.14-.01.24-.01.3,0,.1-.03.18-.1.24-.11.14-.16.3-.14.46.02.06.02.36.02.89,0,.06,0,.1.02.12.03.08.03.27,0,.58l-.07.1c.02.21.02.52.02.94v.05s0,.06.02.07c.05.06.06.19.02.38,0,.11-.02.28-.05.5s-.05.37-.05.43c0,.1-.02.24-.05.42-.03.18-.06.32-.07.42,0,.06,0,.16.01.28,0,.12.01.21.01.28,0,.03.01.14.04.32s.01.31-.04.37v.05s.02.04.02.07l.02.09c0,.08,0,.12-.02.12-.06.11-.07.21-.02.29l.02.02s-.02.18-.02.46c-.02.1,0,.22.02.36.02.02.02.07.02.17v.58s.02.07.07.12c.08.08.08.16,0,.24-.06.06-.08.14-.05.24.06.3.06.62,0,.96-.08.19-.06.34.05.46.02,0,.02.03.02.09l-.02.1c.11.37-.34,1.28-1.34,2.73-.02,0-.05,0-.1-.01-.05,0-.08-.01-.1-.01-.11,0-.18.06-.19.17,0,.06,0,.11-.01.14,0,.03-.02.06-.02.07,0,.02-.03.03-.06.04-.03,0-.06.01-.1.01h-.05c-.06,0-.1,0-.12.02-.05.05-.15.11-.31.18-.16.07-.27.16-.34.28-.22-.06-.48-.06-.77.02-.03.02-.08.01-.14-.01-.06-.02-.11-.04-.14-.04-.1-.05-.18,0-.24.14-.03.08-.12.12-.26.12-.19-.02-.48-.02-.86-.02-.06,0-.1,0-.12.02-.16.03-.26.04-.31.04s-.13-.05-.24-.13-.2-.14-.26-.17l.12-.1c-.14-.11-.23-.17-.25-.18s-.11.03-.25.11c-.05-.03-.05-.07-.01-.12.04-.05.06-.09.06-.12-.06-.03-.1-.01-.12.06-.02.07-.03.11-.05.11-.16-.08-.33-.17-.5-.26-.02,0-.04-.02-.07-.06-.03-.04-.06-.07-.1-.08-.03,0-.07-.03-.12-.08s-.1-.09-.17-.11c-.05,0-.09-.06-.12-.17v-.17l.26.05.02-.05s.02-.04.02-.07c-.13-.08-.23-.06-.31.07.05-.35-.1-.57-.43-.65-.16-.03-.26-.05-.31-.05-.06-.03-.15-.12-.26-.26-.02-.03-.02-.07,0-.11.02-.04.02-.07.02-.08-.05.05-.09.06-.12.02-.08-.08-.12-.14-.12-.17-.11-.36-.22-.61-.32-.76-.03-.02-.05-.09-.08-.22-.01-.1-.05-.22-.12-.36-.07-.14-.11-.25-.12-.33,0-.05-.04-.12-.12-.22-.16-.11-.23-.22-.22-.33.02-.08,0-.19-.05-.33-.14-.13-.2-.23-.16-.3v-.1c-.09-.14-.14-.41-.14-.79,0-.66-.03-1.17-.1-1.54-.08-.38-.08-.82,0-1.32.02-.08,0-.19-.02-.33,0-.08,0-.21-.01-.38,0-.18-.01-.3-.01-.38v-.24c0-.11,0-.2-.02-.26-.02-.1-.04-.23-.07-.41-.03-.18-.05-.3-.05-.38-.02-.05,0-.18.05-.38v-.21s-.06-.18-.1-.41c0-.06-.02-.21-.05-.43,0-.21,0-.37-.02-.48l-.05-.53c-.02-.08-.04-.2-.06-.36s-.05-.28-.08-.36v-.29c0-.1-.02-.22-.05-.38Z" style="fill: #fff;"/>
    <path d="M64.82,42.63s-.09.01-.17.04c-.08.02-.14.03-.17.01-.43-.1-.7-.25-.82-.46l-.02-.02s-.02-.04-.02-.07c-.03-.05-.11-.11-.24-.18-.13-.07-.22-.15-.27-.23l-.22-.26-.17-.26s-.04-.04-.06-.07-.04-.06-.05-.08c0-.02-.03-.04-.06-.06-.03-.02-.07-.02-.12-.02-.02,0-.02,0-.02-.02l-.02-.02c-.05-.11-.15-.19-.3-.22-.05,0-.07,0-.07-.02-.02-.02-.04-.05-.07-.1-.03-.05-.06-.09-.09-.12-.03-.03-.05-.09-.05-.17s0-.14-.02-.17c-.06-.11-.09-.24-.09-.39,0-.03,0-.08.01-.13,0-.06.01-.1.01-.13,0-.21-.04-.35-.12-.41-.03-.03-.05-.06-.05-.1.03-.14-.05-.31-.23-.51-.11-.16-.14-.3-.09-.41.05-.13.03-.23-.05-.31-.06-.07-.12-.17-.18-.3-.05-.14-.11-.23-.15-.28,0-.02-.01-.06-.04-.12s-.04-.11-.05-.15c0-.03,0-.09.01-.17-.11-.02-.16-.1-.16-.24,0-.06,0-.1-.02-.12-.03-.08-.1-.32-.21-.72,0-.07-.02-.12-.07-.17-.08-.07-.15-.17-.22-.33s-.13-.26-.18-.31c-.03,0-.04-.04-.04-.13-.01,0-.02-.02-.02-.05v-.08c-.05-.12-.12-.27-.2-.46s-.13-.32-.16-.38c-.07-.2-.12-.31-.14-.33-.04-.1-.11-.27-.21-.49-.09-.22-.16-.38-.21-.49-.03-.05-.08-.14-.14-.26-.06-.12-.12-.22-.17-.28-.1-.2-.22-.37-.38-.54-.08-.15-.19-.22-.34-.22-.11-.02-.27.04-.48.17-.19.15-.26.3-.22.47-.03.13-.05.21-.05.24,0,.1,0,.25-.02.45-.02.2-.02.36-.02.47.02.06.02.17.01.32,0,.15,0,.26.04.32v.48c0,.18,0,.3-.02.38l.05.79c.02.21.02.5.02.86,0,.13,0,.32.02.59.02.26.02.46.02.59-.03.14-.04.25-.02.31v1.29c.02.1.02.18,0,.24.03.14.06.5.1,1.08,0,.13,0,.32-.01.58,0,.26-.01.44-.01.55,0,.1-.02.16-.05.19-.03,0-.09.02-.17.07-.08.05-.14.07-.19.07-.02,0-.04.01-.07.04-.03.02-.06.04-.1.04-.05.1-.12.11-.22.05-.05-.06-.1-.1-.17-.1l-.5.07h-.58c-.16.05-.27.05-.32.01s-.1-.15-.13-.32c-.03-.08-.05-.2-.05-.36v-.58s.06-.06.05-.14v-.12c0-.13-.02-.22-.07-.29-.06-.05-.06-.1,0-.17l.05-.05s.02,0,.02-.02c.02-.05.02-.14.02-.26.06-.08.05-.18-.05-.31-.08-.08-.08-.14,0-.19.1-.06.14-.25.14-.55.03-.11,0-.2-.1-.26-.16-.05-.16-.13,0-.24.05-.05.09-.07.12-.07-.03-.05-.05-.11-.06-.18,0-.07-.01-.12-.01-.13-.02-.02-.02-.06-.02-.12.08-.18.06-.33-.07-.46,0-.11,0-.18.02-.19.11-.08.13-.22.05-.43-.02-.02-.02-.04-.01-.08,0-.04.02-.07.04-.08.06-.11.06-.24,0-.38-.06-.1-.1-.15-.11-.17s.03-.08.11-.19c.05-.08.07-.2.07-.36,0-.06-.05-.11-.14-.14-.08-.13-.09-.24-.02-.34.22-.27.24-.57.05-.89-.06-.02-.1-.07-.1-.17l.1-.29c.14-.14.17-.3.07-.48l-.05-.19s.04-.17.01-.35-.04-.3-.04-.33c-.03-.75-.06-1.21-.1-1.37-.02-.07-.02-.16-.02-.29v-.29c0-.21-.02-.5-.05-.89,0-.13-.02-.37-.05-.74-.03-.37-.05-.66-.05-.86-.02-.1-.02-.5-.02-1.22v-.1s.1-.09.16-.19c.06-.1.09-.16.11-.19.02-.03.18-.11.48-.24.19,0,.43-.02.72-.05.46-.03.74-.05.82-.05.13-.02.23.02.31.1.03,0,.08,0,.14.02.06.02.1.02.12.02.17-.05.29.02.38.19,0,.03,0,.06.03.07l.23.6.23.38.2.46c.07.09.15.24.26.43.11.19.18.31.21.36.05.08.11.18.18.31.07.13.13.24.18.34.18.42.39.8.6,1.15.07.07.13.15.18.27s.09.2.13.24c.08.12.16.33.26.61l.22.48s.04.08.07.14c.03.07.05.12.07.18.02.05.04.09.06.13.03.07.05.17.06.31.01.14.03.24.04.32,0,.01.06.03.19.05.05.31.15.56.3.77.16.24.26.43.3.59l.15.33.11.12s-.01.11.01.19.03.14.03.19c.01.16.08.32.19.48.04.05.09.07.15.07.15,0,.29.14.4.41,0,.03.03.08.08.15.06-.15.1-.24.1-.29-.02-.03-.03-.08-.04-.16,0-.07-.03-.12-.06-.16-.06-.08-.06-.18.02-.31.05-.02.07-.1.07-.24,0-.02,0-.03-.01-.05,0-.02-.01-.04-.01-.07,0-.02.02-.26.07-.75l.1-1.08.07-.98.05-.58v-.24c-.02-.14-.01-.32.01-.54s.04-.36.04-.44c.02-.06,0-.18-.02-.34-.02-.11,0-.21.05-.29l.05-.19c-.03-.26-.06-.41-.1-.46-.02,0-.02-.03-.02-.1l.02-.09c.08-.13.08-.28,0-.46-.06-.06-.08-.14-.05-.24.14-.16.16-.32.05-.48-.11-.11-.11-.2,0-.26.06-.1.07-.19.02-.29,0-.08-.02-.26-.05-.55v-.24c0-.19,0-.34.02-.46.13-.24.31-.34.55-.29.53.03.91.07,1.15.12.24.03.38.16.43.38.02.11.04.17.07.17,0,.03,0,.08-.02.13-.02.06-.02.1,0,.13,0,.06,0,.14.02.24.02.1.02.16.02.19-.1.78-.14,1.36-.12,1.73,0,.58-.02,1.14-.07,1.7,0,.13.02.21.05.24.03.21.03.47,0,.79,0,.27.04.46.12.55.02.05.02.13,0,.24-.08.16-.09.3-.02.43.02.02.02.05,0,.1-.03.3-.03.51,0,.62.02.03.02.11.02.24l-.05.72c0,.13.02.32.05.58v.07l-.1.75c-.03.37-.09.65-.17.85-.03.13-.05.2-.05.22-.05.82-.07,1.26-.07,1.31-.05.92-.07,1.39-.07,1.41-.03.61-.04,1.07-.02,1.38.06.5.06,1.05-.02,1.66-.03.27-.08.43-.14.48Z" style="fill: #fff;"/>
    <path d="M74.53,27.83l-.36.14c.05-.27-.41-.35-1.37-.24-1.07.13-1.71.35-1.92.67l-.05.09-.05.05s-.04.1-.04.2c0,.1-.02.16-.08.18v.02c.03.06.03.14,0,.23-.03.09-.04.15-.02.18v.02c-.02.06-.04.13-.08.19-.04.06-.06.11-.06.14,0,.05-.04.21-.12.48,0,.14-.04.39-.09.78,0,.08,0,.14-.02.2,0,.29.02.47.05.56,0,.03,0,.07.01.1,0,.03.01.07.01.1,0,.02,0,.14-.01.38,0,.24,0,.36.01.38v.68s0,.08.01.15c0,.07.01.11.01.13v.56s-.02.09-.01.18c0,.08,0,.16-.01.23-.02.25,0,.52.07.79.03.2.02.35-.02.43l.02.03s.06-.05.1-.05v.05c-.05.05-.06.12-.04.21.02.09.04.17.04.22l.05.23c.03.15.02.24-.05.25,0,.02,0,.04.01.05,0,.02.01.04.01.08.02.07.03.16.05.28.02.12.04.21.07.28,0,.07.01.16.04.27.02.11.04.18.04.22,0,.02,0,.04.01.08,0,.03.01.07.01.1.02.05.02.15.02.3,0,.03.01.09.04.17.02.08.04.13.05.17,0,.03,0,.09-.01.18v.03s.02.03.02.05c.02.14-.02.28-.1.43-.03.03-.02.07.02.1l.24.19c.32.16.51.26.58.31.1.03.14.06.14.07.13.13.26.19.41.19.02,0,.02,0,.02-.02l.05-.02s-.02-.04-.05-.07c-.03-.09-.05-.15-.05-.17.1-.05.18-.07.24-.07.08,0,.12-.05.12-.14.02-.13.03-.2.05-.21.02-.02.1-.02.24-.02.02.08.03.12.05.12s.05,0,.1-.01c.05,0,.08-.01.1-.01.03,0,.07,0,.12-.02l.05-.02c.06.05.13.03.19-.05.14.1.3.06.46-.09.05.11.13.14.24.07h.02c.1.02.18-.03.24-.14l.1-.26.1-.24.07-.22c.03-.13.05-.2.05-.22.05-.14.07-.29.07-.43v-.12c0-.06,0-.1.02-.1.11-.06.16-.18.14-.36,0-.09.02-.18.05-.24.03-.03.05-.06.05-.1-.02-.05-.02-.17-.02-.36-.02-.06,0-.11.02-.13.03-.02.08-.03.14-.01.02,0,.03,0,.05.01.02,0,.03.01.05.01.13-.13.15-.26.07-.41v-.02l.14.02.34.17.53-.05.7-.05s-.02.06-.02.12v.24s0,.07-.02.07c-.1.08-.11.13-.05.14.02,0,.03,0,.05.01.02,0,.04.01.07.01.06,0,.1,0,.12-.02,0,.02-.02.09-.05.22,0,.05-.02.13-.05.25-.03.12-.06.21-.07.28-.02.03-.04.07-.07.12-.03.05-.05.08-.05.09-.02.02-.02.05-.02.1l.02.07s0,.06-.01.12c0,.07,0,.1.01.1l-.05.22s0,.06-.02.07v.02c-.02.06-.04.18-.07.34s-.06.28-.1.36c-.02.14-.09.3-.22.48l-.26.28-.12.17-.48.59-.24.31s-.04.09-.08.12c-.04.03-.09.06-.14.07s-.1.03-.13.05c-.05,0-.09.02-.12.05v.05c-.11-.07-.22-.06-.34.02-.02,0-.03,0-.05.02-.06.07-.12.16-.17.27.03-.03.1-.05.19-.05-.19.05-.47.14-.83.28s-.57.22-.64.25c.03-.03.1-.06.19-.1-.24,0-.4.02-.48.05-.02.02-.14.02-.36.02h-.02c0,.08-.06.1-.19.05l-.17-.05h-.58s-.03.02-.05.02c-.03.05-.08.06-.14.05-.03-.03-.12-.05-.26-.05,0-.05-.06-.13-.17-.25-.3-.13-.47-.22-.5-.25-.02-.03-.04-.05-.07-.05h-.07c-.06-.02-.16-.07-.29-.17-.05-.05-.1-.12-.14-.23s-.1-.18-.17-.23l-.29-.52-.14-.24c-.16-.46-.26-.75-.31-.88l-.22-.5s-.02-.14-.02-.31v-.46s0-.04-.02-.07l-.02-.05-.05-.05s0-.07-.01-.12c0-.05-.02-.09-.02-.13,0-.04-.02-.08-.04-.11-.06-.13-.06-.27,0-.43,0-.03-.02-.07-.07-.12.06-.05.05-.14-.05-.26v-.16c0-.06,0-.1-.02-.13-.03-.1-.06-.15-.07-.17-.1-.02-.1-.07,0-.17.03-.02.03-.09,0-.21,0-.03-.02-.11-.05-.24,0-.02-.02-.07-.05-.17-.03-.22-.05-.36-.05-.41,0-.03,0-.06-.01-.1,0-.03-.01-.06-.01-.07-.03-.35-.05-.59-.05-.72v-.22s.01-.07.04-.12c.02-.05.04-.09.04-.12v-.24s.04-.06.03-.12c0-.06-.01-.1-.01-.12.04-.02.07-.04.08-.08,0-.04,0-.09,0-.15,0-.06,0-.11.02-.14.02-.03.03-.08.04-.14,0-.06,0-.11-.04-.14l.1-.31c0-.06.02-.17.04-.33s.03-.27.02-.35c0-.01.01-.07.05-.18l.1-.54v-.21c0-.11,0-.18.03-.23.05-.22.09-.33.11-.33s.03-.01.04-.04c0-.02,0-.04-.03-.04-.04-.03-.05-.12-.03-.26.02-.14.03-.24.03-.29v-.07s-.02,0-.02-.02l.14-.41.1-.14c0-.27.5-1.1,1.49-2.49l.24-.31s.07-.06.17-.14c.03-.05.11-.09.24-.12l.12-.1.24-.19h.22l.34-.1h.22c.08,0,.14,0,.17.02.24,0,.42,0,.53.02.02-.02.05-.02.1-.02.21.07.45.08.72.05l.05.02s.09,0,.12.02c.08,0,.14.04.17.12.06.06.14.1.22.12.05.05.07.07.07.05.03.07.08.12.13.16.06.04.09.08.11.11.02,0,.04.02.06.05.02.03.05.03.08,0,.02-.02.04,0,.07.02.06.03.11.04.14.02.05,0,.09.02.12.07l.17.26.05.1h.12c.06-.02.14,0,.22.05.02.02.05.02.1.02,0,.06,0,.1.02.12l.02.02s0-.06.02-.07v-.02s.03.02.05,0c.16.24.33.46.5.65.05.07.09.14.13.24.04.09.07.16.08.19,0,.03.02.06.05.1.03.03.06.06.07.1l.02.02s0,.09.07.17c.02.03.03.07.05.12.02.05.03.08.05.1.02.03.04.1.07.19.03.1.06.17.1.22s.05.12.05.2v.16c-.02.11,0,.29.02.53,0,.05,0,.11.01.19,0,.08.01.14.01.19l.05.19v.11c0,.06.02.1.05.13,0,.08.02.16.07.24v.12c.03.16.05.26.05.31.03.16.03.26,0,.31-.02.03-.02.06,0,.07.02.03.02.06.02.07-.02.02-.02.07-.02.17v.17l-1.77-.38s-.02-.13-.02-.24c0-.05,0-.12.02-.2.02-.09.02-.15,0-.2,0,.13-.03.09-.1-.1-.24-.72-.35-1.32-.34-1.8v-.07s-.02-.07-.02-.12l.02-.05c-.05-.09-.02-.19.07-.29h-.05s-.04-.03-.08-.04c-.04,0-.08-.01-.11-.01l.14-.05v-.02l-.02.02h-.05v-.12h-.07s0-.06.02-.07l.02-.02s-.02-.05-.07-.05l-.02.02v-.22s0,.02-.01.02c0,0-.01,0-.01.02-.06,0-.12-.02-.17-.07l-.05-.14Z" style="fill: #fff;"/>
    <path d="M82.28,32.86l-.02-.02c.08.13.14.2.19.22.05,0,.12,0,.22.01.1,0,.17.01.22.01.06,0,.17,0,.31.02.14.02.26.02.36,0,.34-.05.54-.08.6-.1l.43-.17s.08-.02.16-.06c.07-.04.13-.06.18-.06.02,0,.07,0,.16.01.09,0,.14,0,.16-.04h.1s.14.04.31.01c.18-.02.28-.04.31-.04.02,0,.06,0,.12.01s.11.01.14.01c.11.02.26.02.46.02h.14c0-.06.02-.07.07-.02.05.03.13.04.25.01.12-.02.2,0,.25.06.18-.18.26-.39.26-.65v-1.15s.02-.03,0-.05c-.05-.06-.06-.23-.05-.5.02-.27.02-.44.02-.5l-.02-.05v-.1s-.02-.14-.06-.29-.06-.25-.06-.31c0-.32.02-.53.05-.62.03-.11.06-.36.1-.74,0-.14-.02-.24-.07-.29-.06-.08-.06-.18,0-.29.03-.02.06-.05.07-.09.02-.05.03-.08.05-.1-.1-.1-.14-.15-.14-.17,0-.03.02-.07.05-.11.03-.04.05-.07.05-.08-.11-.13-.11-.25,0-.36.03-.03.07-.1.11-.19.04-.09.07-.15.08-.17.02-.06.06-.12.14-.17.22-.08.42-.09.58-.05.16.05.34.07.53.07.18,0,.35.02.53.07.18.08.26.22.26.41v.62c.02.06.02.16.02.29s0,.23.02.31c0,.03.02.07.05.11.03.04.05.07.05.08v.19c-.03.1-.03.18,0,.26,0,.03.01.1.04.2s.04.19.04.25c-.02.16.04.37.17.62.03.08.06.23.1.46.03.05.03.09,0,.12s-.05.17-.05.41v.05c.06.05.08.18.05.41-.02.05,0,.11.02.19.06.1.1.16.1.19s-.04.1-.12.19c.1.08.09.18-.02.29.05.02.1.06.17.12l-.07.1c-.08.13-.08.22,0,.29.05.08.07.13.07.16s-.04.08-.12.16c.03.05.06.12.08.2.02.09.04.16.06.2l-.12.24c-.03.13-.02.22.05.26.05.05.06.09.02.12-.02.02-.04.15-.07.41-.03.18-.02.3.05.36v.17s.02.15.02.41v.17l.05.14v.12c-.05.06-.06.16-.02.29,0,.16.02.26.07.31s.04.1-.02.17-.1.2-.1.41c0,.02,0,.05-.02.1-.01.05-.02.09-.02.12-.06.16-.08.26-.06.29,0,.24-.04.45-.12.62l.02-.12v-.24c.03-.24.04-.24.01,0s-.04.38-.04.42c0,.16-.02.31-.05.44-.08.34-.09.54-.05.61.03.07.02.18-.05.35-.05.18-.07.43-.07.77,0,.11,0,.18-.02.22,0,.03,0,.05-.02.05v.07c.03.1.06.23.07.39.02.16.03.28.05.36,0,.06,0,.1-.02.12-.05.14-.02.25.1.31l.07.07-.19.24s.03.05.05.1c.02.05.04.08.07.09-.03.03-.1.1-.19.22-.03.14-.15.22-.36.22-.13-.05-.21-.06-.24-.05-.06.05-.21.06-.43.02-.22-.03-.38-.05-.46-.05-.13,0-.25-.05-.36-.14-.05-.02-.07-.1-.07-.24,0-.06.01-.16.04-.28.02-.12.04-.19.04-.2.02,0,.02-.02.02-.05-.05-.06-.02-.15.07-.26-.08-.13-.09-.22-.02-.29v-.09c.03-.22.05-.34.05-.36.02,0,.02-.02.01-.07,0-.05-.01-.08-.01-.1,0-.05,0-.16-.01-.32,0-.17,0-.28.04-.32.05-.27.07-.44.03-.5-.02-.03-.01-.07,0-.12.02-.05.03-.08.03-.1,0-.21,0-.37,0-.48-.02-.06-.02-.17,0-.31v-.05s.01-.02.04-.02c-.02-.03-.04-.22-.04-.55,0-.02,0-.04-.02-.07-.02-.03-.02-.06-.02-.07-.05-.08-.06-.14-.02-.17.05-.11.04-.22-.02-.31-.03-.03-.05-.09-.05-.17.02-.02.02-.09.02-.24.05-.21,0-.43-.14-.67,0-.03,0-.05-.01-.05,0,0-.01-.02-.01-.05l.07-.41c.02-.08,0-.16-.06-.24-.06-.08-.12-.11-.18-.1h-.24c-.08-.05-.3-.07-.65-.07-.35.03-.58.06-.67.1h-.36c-.38-.03-.67-.07-.86-.12-.03-.02-.1-.05-.22-.1-.14.11-.28.13-.41.05h-.1s-.09.02-.17.02h-.12c-.11.05-.25.07-.41.07h-1.06s-.07,0-.12-.01c-.05,0-.08-.01-.1-.01-.13.02-.22.04-.26.08-.05.04-.07.12-.07.25l-.07,1.06c0,.11,0,.18-.02.22v.1s.04.12.02.25c-.02.14-.02.23-.02.28.02.02.02.03,0,.05l-.02.1s-.02.05-.02.09c.05.21.02.49-.07.84-.02.13-.02.3-.02.53-.02.06-.02.16-.02.3v.3c-.02.06-.02.31-.02.74,0,.11.02.3.05.55v.26c0,.06,0,.14-.02.23-.02.09-.02.15-.02.18v.5s-.07.12-.07.26c-.08-.02-.22-.03-.41-.04-.19,0-.34-.04-.43-.08-.05-.02-.12-.04-.23-.06-.1-.02-.18-.05-.23-.08h-.1c-.13-.02-.21-.04-.25-.07-.04-.03-.08-.11-.11-.24l.1.07.02-.02-.05-.17c-.08-.19-.13-.32-.14-.38-.02-.05,0-.09.02-.12v-.07c-.03-.08-.04-.2-.04-.37,0-.17-.02-.29-.08-.37v-.19s-.02-.14-.02-.29v-.19c.03-.08.04-.14.02-.17-.02-.02-.02-.11-.02-.29.03-.08.05-.2.05-.36l.1-.72.1-.07s-.08-.07-.1-.07l.07-.14c.05-.08.06-.18.02-.29-.02-.11-.02-.27-.02-.48,0-.03,0-.08-.02-.13-.02-.06-.02-.09-.02-.11.03-.46.04-.81.02-1.03,0-.05.02-.18.05-.41.02-.14.06-.36.12-.64.06-.28.1-.45.12-.52l.22-1.03c.02-.1.07-.19.17-.29-.05-.06-.08-.1-.1-.12.1-.08.13-.19.1-.34-.03-.08-.05-.23-.05-.46-.02-.06,0-.24.05-.53.02-.06.02-.17.02-.31s.02-.26.05-.34c0-.02,0-.03-.01-.05s-.01-.03-.01-.05c-.02-.03-.02-.1-.02-.22v-.05s.02-.06.02-.07v-.6s0-.09.01-.18c0-.09.01-.16.01-.23,0-.11,0-.28-.01-.5s-.01-.4-.01-.53v-1.16c0-.26-.02-.47-.05-.61,0-.03-.01-.15-.04-.36s-.02-.34.01-.38l-.05-.22c.06-.02.24-.05.53-.1l.12.12c.06-.06.11-.1.14-.12.05.05.1.09.17.12.05,0,.12-.02.22-.07.06.1.18.14.34.12h.17c.13.02.22.07.28.16.06.09.07.19.04.3-.03,0-.05.02-.05.07,0,.08-.02.23-.06.44s-.04.36.01.44c.02.03.02.06.02.1l-.02.02c.03.37.03.6,0,.69.11.13.09.23-.07.31.1.11.1.23.02.36-.02.03,0,.14.02.34,0,.09,0,.16-.02.19l-.05.19c0,.22,0,.35-.02.38-.06.14-.04.25.07.31-.08.18-.09.35-.02.53-.03,0-.06.02-.1.07.08.05.09.12.02.22-.03.09,0,.15.07.17-.11.11-.14.22-.07.34.02.02.02.06.02.14-.02.07-.03.13-.04.2s-.02.14-.02.22-.01.13-.01.18c0,.14-.04.27-.12.38.03,0,.06,0,.07-.01.02,0,.04-.01.07-.01v.02l-.12.14c-.06.08-.06.18,0,.29-.03,0-.07.01-.12.04-.05.02-.09.02-.12-.01-.03.13-.04.21-.01.24.02.03.11.06.25.09,0,.11,0,.18.02.22.02-.02.05-.02.1-.02ZM80.91,36.89l-.14.14s.03.04.05.07c.02.03.03.05.05.06.02,0,.04.01.07.01.06-.02.06-.11-.02-.29ZM81.03,36.27l-.14.07s0,.05.02.1c.03-.02.08-.06.14-.12l-.05-.05.07-.1s-.09-.02-.12-.05l-.02.02s.03.04.05.07c0,.02.02.03.05.05ZM81.05,36.7l-.05-.02s-.03.04-.05.07c-.02.03-.03.06-.05.07.02,0,.03,0,.05.02.02-.05.05-.1.1-.14ZM80.98,37.83l.1.1s.05-.06.05-.07l-.14-.07v.05ZM81.46,41.16h-.07s0,.07-.02.1-.02.06-.02.07c0,.03.03.05.1.05h.12s-.06-.1-.1-.22Z" style="fill: #fff;"/>
    <path d="M50.6,58.44l.04-.14h-.04s-.05-.02-.07-.02c-.07-.05-1.22-.07-3.43-.07-.32.03-.52.06-.61.1h-.33c-.35-.03-.61-.07-.79-.12-.03-.02-.09-.05-.2-.1-.13.11-.25.13-.37.05h-.09s-.08.02-.15.02h-.11c-.1.05-.23.07-.37.07,0,.02-.16.02-.48.02l-.48-.02s-.07,0-.11-.01c-.04,0-.07-.01-.09-.01-.17.02-.28.12-.31.31h-.07c0,.08,0,.19-.01.34,0,.14-.01.25-.01.31-.01.16-.02.4-.02.71v1.38c0,.32.01.78.04,1.39,0,.24.01.57.04.98,0,.22.03.42.09.6.01.11-.03.17-.13.17h-.04c-.06.03-.29.02-.7-.02-.1,0-.17.02-.2.05-.12.05-.23.03-.35-.05-.12-.11-.23-.09-.35.07-.06.06-.09.1-.1.12,0,.02-.03.02-.06.02s-.05,0-.07-.02c-.01-.02-.04-.06-.09-.12l-.15-.17c-.16.08-.27.11-.32.08-.05-.02-.09-.13-.12-.32-.01-.02-.02-.03-.02-.05.01-.21-.07-.4-.26-.58l.28-.07c.06-.16.03-.31-.09-.46-.13-.13-.15-.35-.07-.67.07-.19.04-.4-.11-.62-.09-.13-.09-.22,0-.29.03-.03.03-.1,0-.19-.01-.09,0-.23.04-.41.03-.14.02-.3-.02-.48-.01-.08,0-.21.04-.38.09-.18.11-.36.07-.55v-.79c0-.09-.01-.27-.04-.53l.07-.22v-.53c-.03-.82.06-1.5.26-2.06l.07-.29c.03-.14.05-.22.07-.24.05-.09.1-.23.15-.42.05-.19.1-.33.15-.42.16-.52.27-.84.35-.96.04-.05.12-.28.25-.69l.45-1.22.13-.29s.05-.09.11-.23c.06-.14.12-.23.17-.28.03-.03.04-.06.04-.07.12-.26.33-.54.63-.86.06-.05.13-.13.22-.24.09-.11.15-.18.17-.21.09-.08.15-.1.2-.07.09.03.28-.04.59-.22l.22-.14s.07-.04.12-.06c.05-.02.08-.05.1-.08.06-.06.15-.1.26-.12.06,0,.16-.02.31-.05.15-.03.26-.05.35-.05.01,0,.1-.02.26-.05.15-.03.24-.03.28,0,.01.02.04.02.07,0l.09-.02s.09-.03.2-.04c.1,0,.18-.04.24-.11h.04c.09,0,.36-.05.83-.17.04,0,.09,0,.15.01.06,0,.11.01.15.01h.11c.15-.02.29,0,.44.07.28.12.69.29,1.24.5.61.24,1.09.48,1.44.72.09.05.19.12.32.23.12.11.28.19.47.25l.2.34s.08.14.21.37c.04.07.1.17.17.3s.13.24.17.3c0,.03,0,.06-.02.1-.01.04.06.12.21.24.04.03.07.09.09.16s.06.13.09.16c.03.21.04.4.02.56v.1l.02.66c.01.11.02.27.03.47,0,.2.01.34.03.42.04.51.08.84.11.98,0,.05,0,.08-.02.1-.04.08-.02.23.07.44.06.08.07.17.04.27-.03.13-.02.27.02.42.07.4.1.74.09,1.01,0,.29.03.53.09.72.03.18.04.3.02.36-.01.08-.01.2,0,.36.01.16,0,.27-.02.34l-.04,1.3c0,.22-.01.37-.04.46-.01.05-.02.12-.01.22,0,.09-.02.17-.08.22l.02.07s.04.08.02.1c-.01.03-.02.18-.02.43-.03.38-.06.63-.09.74-.04.37-.08.58-.11.62-.01.03-.01.07.01.11s.03.08.03.11c-.03.26-.04.46-.04.62-.03.13-.04.21-.04.24.01.16-.03.31-.13.46h-.63c-.1.03-.25.04-.44.04-.19,0-.33,0-.41.01-.01,0-.09-.02-.22-.07-.12-.08-.17-.18-.15-.29.04-.13.02-.22-.07-.26l.04-.12c-.09-.11-.11-.24-.07-.38.01-.03.02-.19.02-.48,0-.13,0-.31-.01-.55,0-.24-.01-.42-.01-.55,0-.21,0-.37-.02-.48,0-.05,0-.08-.02-.1-.03-.26-.04-.45-.04-.58v-.07c-.04-.11-.07-.22-.08-.34,0-.11,0-.24,0-.37,0-.14.01-.24.01-.32v-.26c.03-.14.01-.26-.04-.36-.01-.06-.01-.14,0-.24ZM42.74,56.5s.04-.02.07-.02c.03.13.09.19.17.19.04,0,.11,0,.19.01s.15.01.21.01.15,0,.28.02c.13.02.24.02.33,0,.31-.05.49-.08.55-.09l.39-.17s.08-.02.14-.06c.07-.04.12-.06.16-.06.01,0,.06,0,.14.01s.13,0,.14-.04h.09s.12.04.28.01c.16-.02.25-.04.28-.04.01,0,.05,0,.11.01s.1.01.13.01c.1.02.24.02.41.02.01.02.04.02.07.01s.05-.01.07-.01c0-.06.02-.07.07-.02.04.03.12.04.23.01.11-.02.19,0,.23.06.03-.03.3-.08.82-.14.52-.06,1.02-.12,1.52-.18.49-.06.74-.11.74-.16h.15v-.31c-.04-.08-.04-.16,0-.24.01-.05,0-.11-.04-.19-.09-.08-.13-.14-.13-.17s.03-.09.09-.19c.04-.05.07-.1.09-.14-.1-.11-.13-.21-.09-.31.07-.08.06-.14-.04-.17-.04-.03-.08-.06-.1-.07-.02-.02-.03-.04-.03-.06,0-.02,0-.04.02-.06.01-.02.04-.05.09-.09,0-.06,0-.13-.01-.19,0-.06-.01-.11-.01-.14,0-.09-.02-.16-.07-.19l-.11-.07c.05-.08.08-.14.08-.17.04-.06.03-.14-.04-.22-.04-.02-.08-.05-.13-.09-.06-.06-.07-.14-.04-.24.06-.11.05-.22-.01-.33-.01-.03-.03-.08-.04-.14-.01-.06-.03-.11-.04-.14-.06-.13-.12-.23-.2-.31-.13-.09-.22-.26-.26-.48-.04-.26-.17-.36-.39-.31-.13.05-.22,0-.26-.12-.09-.16-.25-.24-.48-.24-.1,0-.19-.04-.26-.12-.04-.06-.11-.09-.2-.09-.17-.08-.33-.12-.46-.12-.03-.03-.06-.05-.09-.05-.19.05-.31.02-.37-.1-.04-.03-.08-.03-.11,0h-.15c-.22,0-.34,0-.37-.02-.03-.03-.1-.05-.22-.05h-.09c-.13,0-.2-.07-.2-.22-.04.02-.09.03-.15.05-.06.02-.11.04-.14.06-.04.02-.06.06-.08.11-.12,0-.18,0-.2.02-.01.02-.05.04-.11.06-.06.02-.1.06-.13.11-.04.05-.14.05-.28,0-.04-.02-.1,0-.17.02.04,0,.09.02.13.07-.07.1-.14.09-.2-.02-.03.03-.05.08-.07.13-.01.06-.04.1-.07.13-.13,0-.21.01-.23.04-.02.02-.06.12-.1.28-.03.16-.1.27-.2.31l-.04.05-.33.39s-.03.07-.04.1l-.02.05c-.01.19-.08.38-.2.56l-.02.07s-.02.07-.02.1c0,.08-.03.15-.09.22-.03.03-.04.08-.04.14.04.13.04.32-.01.56-.03.02-.08.11-.14.28.01.02,0,.06-.03.14-.03.08-.05.15-.05.22,0,.16-.04.38-.11.65-.01.05-.02.14-.02.29v.31l-.07.21s0,.04-.02.07c-.01.03-.02.06-.02.07-.03.16-.04.26-.04.31v.02l-.07.36h.07c0,.11,0,.18.02.22ZM42.8,56.45l.02.02h-.02v-.02ZM51.08,64.15l.02-.02h-.02v.02ZM51.45,61.92h.04s.02,0,.02-.01,0-.01.02-.01l-.04-.05s-.04.06-.04.07ZM51.64,62.01h-.17c.06.06.12.06.17,0ZM51.49,61.37l.07.29s.03.05.04.1l.09-.1-.11-.12s.05,0,.07-.02c.04,0,.07,0,.09-.02.03-.05.04-.08.02-.09,0-.03-.02-.05-.07-.05-.03,0-.07,0-.11.01s-.07.01-.09.01ZM52.01,63.26l-.2-.05c.03.06.05.1.07.11.01,0,.03.01.04.01s.04-.02.09-.07ZM52.12,63.45l-.28-.07c-.01.11.04.18.15.21.03-.05.07-.09.13-.14ZM51.93,62.54s0,.03-.01.05c0,.02-.01.03-.01.05,0,.02.01.02.04.02v-.02s.02-.04.02-.07c-.01,0-.03,0-.04-.02ZM51.99,63.19l.04.07.11.07c.07.03.12.04.13.02.04-.05.05-.1.02-.14v-.12c-.06,0-.1,0-.13.02l.13-.24-.15-.14-.02.02c0,.07,0,.1.02.12-.01.02-.04.02-.09.02-.16.06-.18.16-.07.29ZM52.19,61.85v-.07s-.01-.06-.04-.1c-.01-.02-.07-.02-.15-.02-.01,0-.03,0-.04.02-.01.02-.01.03,0,.05,0,.05.03.08.09.09.01.02.07.02.15.02ZM52.28,62.09s-.04,0-.09-.01c-.04,0-.08-.01-.11-.01-.04.1-.04.18,0,.26.07-.05.14-.13.2-.24Z" style="fill: #fff;"/>
    <path d="M57.33,64.32s-.06.04-.1.07c-.03,0-.06.02-.07.05,0,.02.01.04.04.08.02.04.02.08-.01.11-.03-.06-.11-.1-.24-.1s-.23.02-.31.05v-.07c0-.08-.03-.1-.1-.07-.03,0-.05-.03-.05-.1-.11,0-.18,0-.19-.02-.06-.02-.08-.06-.05-.12.03-.03.06-.04.1-.02.03.02.05.02.06.01,0,0,.01-.04.01-.08-.02-.02-.08-.02-.19-.02.03-.06.05-.14.05-.24l.02-.14s.05-.07,0-.07c-.05-.05-.09-.12-.12-.22s-.06-.17-.1-.22c-.1-.13-.08-.27.05-.43.03-.03.07-.05.12-.05.1,0,.17-.06.22-.19l-.1.07c-.05-.21-.1-.32-.17-.34.03-.14.03-.24,0-.29-.02-.02-.02-.03-.02-.05-.08-.24-.12-.46-.12-.65,0-.03,0-.12-.02-.28-.02-.15-.02-.27,0-.35,0-.02,0-.05-.02-.11-.02-.06-.02-.1,0-.13l-.02-.05s-.06-.04-.07-.07h-.05c-.14-.02-.28-.09-.41-.22l.07-.19.07.07v-.17s.06.06.13.08c.07.02.12.07.13.13.06-.03.08-.06.05-.1-.06-.06-.1-.12-.1-.17-.02-.02-.02-.06-.02-.12.06-.05.12-.1.17-.17.05-.05.07-.1.07-.17-.05-.22-.09-.36-.12-.41l.1-.26c.02-.06,0-.15-.05-.26-.05-.06-.06-.14-.02-.24.03-.05.03-.09,0-.14-.03-.24-.04-.38-.02-.43.02-.05,0-.1-.05-.14-.03-.1-.04-.16-.02-.19.03-.14.04-.24.02-.29-.02-.03-.03-.07-.04-.12,0-.05,0-.09,0-.13,0-.04,0-.09-.01-.15,0-.06-.02-.21-.05-.43,0-.02,0-.04-.01-.07,0-.03-.01-.05-.01-.07-.03-.11-.04-.18-.02-.19.02-.11,0-.23-.05-.36-.02-.02-.02-.03-.02-.05v-.05s-.07-.07-.07-.17c.03-.03.04-.14.01-.32s-.04-.29-.04-.32v-.08s0-.08.02-.11.02-.06,0-.09-.02-.06-.02-.07c.1-.14.09-.31-.02-.5-.06-.09-.06-.17.02-.22.06-.08.1-.21.1-.38s-.03-.3-.1-.36c-.03-.03-.02-.1.02-.22.02-.03.04-.08.06-.14s.05-.11.08-.14c.03-.13,0-.22-.07-.26v-.19c.13-.08.16-.18.1-.29l-.05-.1v-.07l.12-.1s0-.03-.02-.05c0-.05,0-.09-.02-.12-.05-.06-.04-.13.02-.19.03-.05.02-.1-.02-.17-.1-.14-.07-.24.07-.29.02-.06,0-.15-.05-.26.13-.13.14-.27.02-.43l.1-.1c.06-.03.08-.06.05-.1-.03-.03-.05-.13-.05-.29-.03-.08-.06-.12-.07-.12.05-.13.09-.3.12-.53.02-.05.05-.15.1-.31.06-.06.12-.1.17-.1.11-.06.18-.1.22-.12,0,.02,0,.02.02.02h.05c.06.05.14.05.22,0,.05-.02.16-.02.34-.02.08-.08.16-.09.24-.02.13.05.26.05.38,0,.06-.05.14-.06.22-.02.05.03.17.02.36-.02.19-.05.35-.06.48-.05.03.02.16.02.38.02l.65.07h.65s.1,0,.19.01c.1,0,.18.01.24.01.16-.05.26-.07.29-.07h.36s.05.02.1.02c.03,0,.11-.01.23-.04.12-.02.2-.02.23.01.02,0,.06,0,.12-.02.13-.02.22-.02.29,0,.1.06.18.06.26-.02.08-.08.14-.08.17,0,.05.03.22.07.53.12.08,0,.14,0,.17.02l.1.05c.13,0,.22.07.26.22,0,.03.02.06.05.1.06.05.14.13.24.24.1.11.16.18.19.22.03.05.11.14.24.26.13.13.22.23.29.31.13.13.22.23.26.31l.24.19c.06.03.14.17.24.41.03.13.06.36.1.69.03.22.03.38,0,.46v.46s-.05.18-.1.41c-.02.05-.06.15-.12.31l-.36.58c-.08.11-.18.2-.29.26-.21.19-.51.36-.91.5-.06.03-.42.11-1.08.24l-.14.02c-.08,0-.14.02-.17.05-.02.02-.05.02-.1.02-.02,0-.1,0-.24-.01s-.22,0-.22.01c-.18.09-.3.19-.36.3-.03.05-.04.17-.02.35.02.09.07.22.17.4.1.17.15.31.17.42l.33.64c.04.06.13.24.27.53.06.16.2.44.42.83l.07.13c.11.3.22.5.31.62.03.06.07.13.11.21.04.09.07.15.09.18.02.04.03.07.05.1s.03.06.05.11l.07.13s.06.07.07.12.03.09.05.12c.03.03.06.08.09.15.03.07.05.13.07.17.01.03.03.07.06.12s.04.08.05.09l.35.68c.11.2.18.35.23.45.01.03.04.07.07.13.03.06.05.1.07.13.08.11.13.23.17.34.06.13.14.28.23.45l.2.39.28.55c.06.05.11.13.14.23.03.05.04.15.02.3-.02.15,0,.26.02.32.08.19.05.3-.1.31l-.12.17s0,.04-.01.07c-.05.08-.1.12-.14.12-.13.03-.2.05-.22.05-.06,0-.1,0-.12.02-.14.08-.3.06-.46-.05,0-.14-.06-.23-.19-.26-.03-.19-.09-.31-.17-.36.03-.11.05-.17.06-.19-.06-.07-.11-.15-.14-.25,0-.07-.04-.14-.11-.22l-.04-.05-.08-.15c-.1-.07-.16-.18-.18-.31-.02-.09-.07-.17-.14-.23l-.03-.04c-.03-.09-.06-.14-.07-.17-.05-.16-.08-.35-.1-.56l-.04-.1v.24s0,.17,0,.17l-.06-.09c-.05-.06-.08-.13-.08-.19,0-.05-.01-.09-.04-.12-.01.04-.2-.25-.55-.86-.35-.61-.73-1.27-1.13-1.97-.41-.71-.66-1.16-.77-1.35-.01-.05-.04-.1-.08-.15-.03,0-.04-.02-.04-.05s-.05-.12-.16-.26c-.07-.05-.1-.12-.1-.2-.03-.06-.07-.13-.12-.19-.13-.13-.23-.29-.31-.48v-.1c0-.1-.04-.17-.12-.22-.05-.02-.07-.08-.07-.19-.02-.14-.09-.23-.22-.26-.06-.02-.1-.06-.1-.14s0-.13-.02-.14c0-.08-.03-.13-.1-.14-.08,0-.12-.05-.12-.14,0-.13-.12-.31-.36-.55l-.05-.02s-.06-.05-.07-.05c-.03-.05-.02-.09.02-.12-.03-.02-.1-.02-.19-.02-.08-.03-.23-.03-.46,0-.08,0-.15.07-.22.22l.1.12c-.14,0-.24.08-.29.24-.02.05-.02.15-.02.31-.03.14-.02.26.05.36.02.06.02.14,0,.22-.06.11-.05.22.05.31.02.02.02.06.02.12,0,.02,0,.04-.01.07,0,.03-.01.06-.01.07-.03.11-.02.18.05.22.08.05.1.1.05.17-.06.11-.05.22.05.31.05.06.06.14.02.22-.03.1-.02.18.05.24.06.05.08.11.05.19-.06.11-.06.21.02.31v.05c0,.18,0,.29-.02.34v.46c0,.14,0,.25.02.31,0,.37,0,.64.02.82v.53c.03.37.05.59.05.67,0,.06.02.21.05.43.03.1.05.24.05.44s0,.35.02.44v.26s.02.07.02.12c.02.02.02.03.02.05l.26.12c-.16.05-.26.22-.29.53,0,.05,0,.08-.02.1-.02.02-.02.03-.02.05.06.14.08.34.05.6,0,.18-.02.3-.07.36l.17.05-.02.05h-.1l.02.1c0,.08-.03.12-.1.12-.05-.02-.1-.06-.17-.12-.03.03-.07.06-.12.07v-.14c-.06,0-.1,0-.12-.02-.1,0-.14-.05-.14-.14,0-.08-.05-.12-.14-.12h-.05l-.14-.07c0,.13,0,.22.02.26-.06-.05-.08-.12-.05-.22l-.02-.02v-.07s.1-.03.24,0c0-.06,0-.1.02-.12.05-.13.07-.23.07-.31,0-.03-.01-.05-.04-.05s-.04-.02-.04-.05,0-.06-.01-.1c0-.03-.02-.06-.04-.1v-.02s-.09-.02-.17-.02l-.17-.14c-.06-.06-.1-.1-.1-.12v-.22c-.02-.06-.06-.11-.12-.14-.1-.06-.12-.14-.07-.22-.16.06-.16.2,0,.41v.12s-.02.07-.05.11c-.03.04-.08.08-.14.13-.06.05-.1.08-.12.1-.02.08-.02.13,0,.14.02,0,.06,0,.12-.01.06,0,.12-.01.17-.01h.1c.05.08.05.14,0,.17v.17l.19.29h.1l-.02.02v.05ZM57.02,62.21h-.31s-.08-.11-.1-.19c-.03.14,0,.25.12.31.02-.03.06-.06.14-.07.08-.02.13-.03.14-.05ZM57.09,61.92c.08-.03.12-.09.12-.17-.05,0-.09.06-.12.17-.02.03-.07.05-.17.06-.1,0-.17,0-.22-.01,0,.02,0,.03.01.05,0,.02.01.04.01.07.03-.03.1-.06.22-.07l.17-.02s-.02-.04-.02-.07ZM57.31,62.52l.05-.19c-.11.09-.13.16-.05.19ZM57.67,61.53l-.02.02.02.02v.02-.02l.02-.02s0-.02-.02-.02ZM62.1,49.4h-.77c-.06.02-.16.02-.29.02h-.29c-.26,0-.69.02-1.3.05-.1,0-.24,0-.44.02-.2.02-.35.02-.44.02-.08,0-.23.05-.46.14-.1.03-.14.08-.14.14-.02.02-.02.03-.02.05v.02c-.06.07-.07.14-.02.22.02.03.02.15.02.36-.06.24-.03.45.1.62.08.1.08.21,0,.34-.13.21-.1.45.07.72.02.02.04.06.07.14v.19s.09-.02.17-.02c.06.02.14.02.23,0,.09-.02.16-.02.2-.02h.22s.18.05.38.1c.05.02.14,0,.29-.02.08-.05.17-.05.26,0h.14s.13-.02.24,0h.14c.08,0,.14,0,.17-.02h.26c.06,0,.17,0,.31-.01s.26-.01.36-.01c.05,0,.13,0,.25.01s.21.01.28.01c.26-.03.39-.06.41-.1l.12-.12s.11-.06.19-.14c.14-.09.24-.22.29-.38,0-.03.02-.06.05-.1.03-.02.06-.04.07-.07.02-.05.03-.08.05-.1.03-.08.02-.16-.05-.24-.06-.11-.06-.22.02-.31.02-.02.02-.07.02-.17-.03-.1-.11-.15-.24-.17-.21-.03-.26-.14-.14-.31.05-.09.04-.18-.02-.24-.02-.06-.06-.13-.12-.19-.1-.08-.18-.09-.24-.02l-.07.1c-.1.05-.18.04-.24-.02-.03,0-.06-.06-.07-.17,0-.03,0-.08-.01-.14s-.01-.12-.01-.17ZM58.1,61.97c.03.1.07.13.12.1.02-.06.02-.1,0-.12-.06-.03-.1-.02-.12.02ZM62.37,58.03v-.05h-.1v.07s.06,0,.07-.02h.02ZM62.49,58.32v-.02l-.05-.05v.02l.05.05ZM64.58,62.37h.02s0-.03-.02-.05c0,.02,0,.02-.02.02l.02.02Z" style="fill: #fff;"/>
    <path d="M26,40.12h-.5s-.09,0-.18-.02c-.09-.02-.16-.02-.23-.02h-.26c-.25.03-.44.05-.55.05-.43,0-.68,0-.74-.02h-.3c-.14,0-.24,0-.3-.02-.22,0-.4,0-.53-.02-.35-.1-.63-.12-.84-.07-.05,0-.08,0-.09-.02l-.1-.02s-.03-.02-.05,0c-.05,0-.14,0-.28-.02-.14-.02-.22,0-.25.02h-.1s-.1-.02-.22-.02l-.67-.05s0,0,0,0v-.07s.02-.02.02-.05c.02-.03.02-.1.02-.22,0-.34.02-.59.07-.77.06-.17.08-.29.05-.35-.05-.07-.03-.27.05-.61.03-.13.05-.27.05-.44,0,0,0-.05,0-.08,0,0,0,0,0,.01v-.03s.02-.11.02-.2v-.13c.03-.24.04-.24.01,0,0,.05,0,.08-.01.13v.1l-.02.09s0,0,0,.01c.08-.17.12-.37.12-.61-.02-.03,0-.13.06-.29,0-.03,0-.07.02-.12,0-.05.02-.08.02-.1,0-.21.03-.34.1-.41.06-.06.07-.12.02-.17-.05-.05-.07-.15-.07-.31-.03-.13-.02-.22.02-.29v-.12l-.05-.14v-.17c0-.26,0-.39-.02-.41v-.17c-.06-.06-.08-.18-.05-.36.03-.26.06-.39.07-.41.03-.03.02-.07-.02-.12-.06-.05-.08-.14-.05-.26l.12-.24s-.04-.12-.06-.2c-.02-.09-.05-.16-.08-.2.08-.08.12-.13.12-.16s-.02-.08-.07-.16c-.08-.06-.08-.16,0-.29l.07-.1c-.06-.06-.12-.1-.17-.12.11-.11.12-.21.02-.29.08-.1.12-.16.12-.19s-.03-.09-.1-.19c-.03-.08-.04-.14-.02-.19.03-.22.02-.36-.05-.41v-.05c0-.24.02-.37.05-.41s.03-.07,0-.12c-.03-.22-.06-.38-.1-.46-.13-.26-.18-.46-.17-.62,0-.06-.01-.15-.04-.25-.02-.1-.04-.17-.04-.2-.03-.08-.03-.17,0-.26v-.19s-.02-.04-.05-.08c-.03-.04-.05-.08-.05-.11-.02-.08-.02-.18-.02-.31s0-.22-.02-.29v-.62c0-.19-.09-.33-.26-.41-.18-.05-.35-.07-.53-.07-.19,0-.37-.02-.53-.07-.16-.05-.35-.03-.58.05-.08.05-.13.1-.14.17-.02.02-.04.07-.08.17-.04.1-.08.16-.11.19-.11.11-.11.23,0,.36,0,.02-.02.04-.05.08-.03.04-.05.08-.05.11,0,.02.05.07.14.17-.02.02-.03.05-.05.1-.02.05-.04.08-.07.09-.06.11-.06.21,0,.29.05.05.07.14.07.29-.03.38-.06.63-.1.74-.03.1-.05.3-.05.62,0,.06.02.17.06.31.04.14.06.24.06.29v.1l.02.05c0,.06,0,.23-.02.5-.02.27,0,.44.05.5.02.02.02.03,0,.05v1.15c0,.13-.03.26-.08.37,0,.02.01.04.01.07,0,.2,0,.39.02.58.16.49.27,1.01.27,1.52.06-.01.12.02.18.1.06.08.08.16.06.24l-.07.41s0,.05.01.05c0,0,.01.02.01.05.14.24.19.46.14.67,0,.14,0,.22-.02.24,0,.08.02.14.05.17.06.1.07.2.02.31-.03.03-.02.09.02.17,0,.02,0,.04.02.07.02.03.02.06.02.07,0,.34.01.52.04.55-.02,0-.04,0-.04.02v.05c0,.14,0,.25,0,.31,0,.11,0,.27,0,.48,0,.02-.01.05-.03.1-.02.05-.02.09,0,.12.03.06.02.23-.03.5-.03.05-.04.16-.04.32,0,.17.01.28.01.32,0,.02,0,.05.01.1,0,.05,0,.07-.01.07,0,.02-.02.14-.05.36v.09c-.06.07-.06.16.02.29-.1.11-.12.2-.07.26,0,.03,0,.05-.02.05,0,.02-.01.08-.04.2-.02.12-.04.21-.04.28,0,.14.02.22.07.24.11.1.23.14.36.14.08,0,.23.02.46.05.22.03.37.02.43-.02.03-.02.11,0,.24.05.07,0,.11-.02.16-.04.05,0,.08,0,.1,0,.22-.02.57,0,1.03.02.02,0,.05,0,.11-.02.06-.02.1-.02.13-.02.21,0,.37,0,.48-.02.11-.03.21-.02.29.02l.14.07s.02-.05.07-.1l.07.1.72.1c.16,0,.28.02.36.05.18,0,.27,0,.29-.02.03-.02.09,0,.17.02h.19c.14,0,.24,0,.29-.02h.19c.08-.06.2-.09.37-.08.17,0,.29,0,.37-.04h.07s.07.04.12.02c.06-.02.19-.06.38-.14l.17-.05.02.02-.07.1c.13-.03.21-.07.24-.11.03-.04.06-.12.07-.25v-.1s.06-.12.08-.23c.02-.1.04-.18.06-.23.05-.1.08-.24.08-.43,0-.19.02-.33.04-.41-.14,0-.23-.02-.26-.07ZM20.85,41.01l-.06-.13h0s-.01,0-.01,0c-.01.02-.02.03-.03.03-.03.02-.06.03-.07.05l-.02-.02s.05-.07.05-.12l.08.06s0,0,.01-.01v.02s.05-.04.05-.04c.06.06.1.11.12.14-.05.03-.08.04-.1.02ZM21.33,40.98s-.04-.03-.07-.05c-.03-.02-.06-.03-.07-.05l.02-.05s.1.08.14.1c-.02.02-.02.03-.02.05ZM21.67,41.03s-.03.03-.06.05c-.03.02-.06.03-.07.05l-.14-.14c.18-.08.27-.09.29-.02,0,.03,0,.06-.01.07ZM22.33,40.91h-.05l.07-.14s.04.02.07.05l-.1.1ZM25.88,40.46c0,.06-.02.1-.05.1-.02,0-.04,0-.07-.02-.03-.02-.06-.02-.1-.02v-.07c.11-.03.18-.06.22-.1v.12Z" style="fill: #fff;"/>
  </g>
</svg>